<svg width="126" height="34" viewBox="0 0 126 34" fill="none" xmlns="http://www.w3.org/2000/svg">
<path d="M57.305 14.439H51.5895L51.5585 12.0382H56.7474C57.6045 12.0382 58.3531 11.8936 58.9934 11.6045C59.6336 11.3153 60.1292 10.9023 60.4803 10.3653C60.8417 9.81803 61.0225 9.16748 61.0225 8.41367C61.0225 7.58758 60.8624 6.91637 60.5423 6.40007C60.2325 5.87343 59.7523 5.49136 59.1018 5.25386C58.4616 5.00603 57.6458 4.88212 56.6545 4.88212H52.2555V24.9872H49.2661V2.43482H56.6545C57.811 2.43482 58.8436 2.55357 59.7523 2.79107C60.661 3.01825 61.4303 3.37966 62.0602 3.87532C62.7005 4.36065 63.1858 4.98022 63.5162 5.73403C63.8467 6.48784 64.0119 7.39138 64.0119 8.44465C64.0119 9.374 63.7744 10.2156 63.2994 10.9694C62.8244 11.7129 62.1635 12.3221 61.3167 12.7971C60.4803 13.2721 59.4993 13.5768 58.3738 13.711L57.305 14.439ZM57.1656 24.9872H50.4123L52.1006 22.5554H57.1656C58.1156 22.5554 58.9211 22.3901 59.582 22.0597C60.2532 21.7293 60.7643 21.2646 61.1154 20.6657C61.4665 20.0564 61.642 19.3388 61.642 18.5127C61.642 17.6762 61.4923 16.9534 61.1928 16.3442C60.8934 15.7349 60.4235 15.2651 59.7833 14.9346C59.1431 14.6042 58.317 14.439 57.305 14.439H53.0455L53.0765 12.0382H58.9004L59.5355 12.9056C60.6197 12.9985 61.5388 13.3083 62.2926 13.8349C63.0464 14.3512 63.6195 15.0121 64.0119 15.8175C64.4146 16.623 64.616 17.511 64.616 18.4817C64.616 19.886 64.3062 21.0736 63.6866 22.0442C63.0774 23.0045 62.2151 23.7377 61.0999 24.2437C59.9847 24.7393 58.6733 24.9872 57.1656 24.9872Z" fill="#999999"/>
<path d="M71.71 1.19568V24.9872H68.829V1.19568H71.71Z" fill="#999999"/>
<path d="M79.4237 8.2278V24.9872H76.5427V8.2278H79.4237ZM76.3258 3.78238C76.3258 3.31771 76.4652 2.92531 76.744 2.6052C77.0332 2.28509 77.4565 2.12503 78.0142 2.12503C78.5614 2.12503 78.9797 2.28509 79.2688 2.6052C79.5682 2.92531 79.718 3.31771 79.718 3.78238C79.718 4.22641 79.5682 4.60848 79.2688 4.92859C78.9797 5.23837 78.5614 5.39327 78.0142 5.39327C77.4565 5.39327 77.0332 5.23837 76.744 4.92859C76.4652 4.60848 76.3258 4.22641 76.3258 3.78238Z" fill="#999999"/>
<path d="M86.874 11.558V24.9872H83.993V8.2278H86.7191L86.874 11.558ZM86.2854 15.9724L84.9533 15.926C84.9637 14.7798 85.1134 13.7213 85.4025 12.7507C85.6917 11.7697 86.1202 10.9178 86.6881 10.1949C87.2561 9.4721 87.9634 8.91449 88.8102 8.52209C89.6569 8.11937 90.6379 7.91801 91.7531 7.91801C92.5379 7.91801 93.2607 8.0316 93.9216 8.25878C94.5825 8.47563 95.1556 8.82155 95.6409 9.29656C96.1263 9.77156 96.5032 10.3808 96.7716 11.1243C97.0401 11.8678 97.1744 12.7661 97.1744 13.8194V24.9872H94.3089V13.9588C94.3089 13.0811 94.1591 12.3789 93.8597 11.8523C93.5705 11.3256 93.1575 10.9436 92.6205 10.7061C92.0836 10.4583 91.4537 10.3343 90.7308 10.3343C89.8841 10.3343 89.1767 10.4841 88.6088 10.7835C88.0409 11.083 87.5865 11.496 87.2458 12.0227C86.905 12.5493 86.6572 13.1534 86.5023 13.8349C86.3577 14.5061 86.2854 15.2186 86.2854 15.9724ZM97.1434 14.3925L95.2227 14.9811C95.233 14.0621 95.3828 13.1792 95.6719 12.3324C95.9714 11.4857 96.3999 10.7319 96.9575 10.071C97.5255 9.41014 98.2225 8.88867 99.0486 8.5066C99.8747 8.11421 100.819 7.91801 101.883 7.91801C102.781 7.91801 103.577 8.03676 104.268 8.27427C104.971 8.51177 105.559 8.87835 106.034 9.374C106.52 9.85933 106.886 10.4841 107.134 11.2482C107.382 12.0123 107.506 12.921 107.506 13.9743V24.9872H104.625V13.9433C104.625 13.0037 104.475 12.2757 104.176 11.7593C103.886 11.2327 103.473 10.8661 102.936 10.6596C102.41 10.4428 101.78 10.3343 101.047 10.3343C100.417 10.3343 99.8592 10.4428 99.3738 10.6596C98.8885 10.8765 98.4806 11.1759 98.1502 11.558C97.8197 11.9297 97.5668 12.3583 97.3912 12.8436C97.226 13.3289 97.1434 13.8452 97.1434 14.3925Z" fill="#999999"/>
<path d="M114.708 11.4496V31.4307H111.827V8.2278H114.46L114.708 11.4496ZM126 16.4681V16.7934C126 18.0118 125.855 19.1426 125.566 20.1855C125.277 21.2181 124.854 22.1165 124.296 22.8806C123.749 23.6448 123.072 24.2385 122.267 24.6619C121.462 25.0853 120.537 25.297 119.494 25.297C118.431 25.297 117.491 25.1214 116.675 24.7703C115.86 24.4192 115.168 23.9081 114.6 23.2369C114.032 22.5657 113.577 21.7602 113.237 20.8206C112.906 19.8809 112.679 18.8224 112.555 17.6453V15.9105C112.679 14.6713 112.911 13.5613 113.252 12.5803C113.593 11.5993 114.042 10.7629 114.6 10.071C115.168 9.36884 115.854 8.83704 116.66 8.47563C117.465 8.10388 118.395 7.91801 119.448 7.91801C120.501 7.91801 121.436 8.12454 122.251 8.53758C123.067 8.9403 123.754 9.51857 124.312 10.2724C124.869 11.0262 125.287 11.9297 125.566 12.983C125.855 14.0259 126 15.1876 126 16.4681ZM123.119 16.7934V16.4681C123.119 15.6317 123.031 14.8469 122.856 14.1137C122.68 13.3702 122.406 12.7197 122.035 12.1621C121.673 11.5941 121.209 11.1501 120.641 10.83C120.073 10.4996 119.396 10.3343 118.611 10.3343C117.889 10.3343 117.259 10.4583 116.722 10.7061C116.195 10.9539 115.746 11.2895 115.374 11.7129C115.002 12.1259 114.698 12.6009 114.46 13.1379C114.233 13.6645 114.063 14.2118 113.949 14.7798V18.7915C114.156 19.5143 114.445 20.1958 114.817 20.836C115.188 21.4659 115.684 21.9771 116.304 22.3695C116.923 22.7516 117.703 22.9426 118.642 22.9426C119.417 22.9426 120.083 22.7825 120.641 22.4624C121.209 22.132 121.673 21.6828 122.035 21.1149C122.406 20.5469 122.68 19.8964 122.856 19.1632C123.031 18.4197 123.119 17.6298 123.119 16.7934Z" fill="#999999"/>
<path d="M29.8402 8.4069C32.1609 8.4069 34.0422 6.52495 34.0422 4.20345C34.0422 1.88195 32.1609 0 29.8402 0C27.5195 0 25.6382 1.88195 25.6382 4.20345C25.6382 6.52495 27.5195 8.4069 29.8402 8.4069Z" fill="#999999"/>
<path d="M15.1331 4.20345C14.3179 4.20345 13.5195 4.2749 12.7379 4.401C11.9312 1.84951 9.54441 0 6.72906 0C3.24978 0 0.426025 2.82472 0.426025 6.30518C0.426025 8.23456 1.29585 9.96218 2.6615 11.1181C1.24542 13.3796 0.426025 16.0488 0.426025 18.9155C0.426025 27.0408 7.01059 33.6276 15.1331 33.6276C23.2556 33.6276 29.8402 27.0408 29.8402 18.9155C29.8402 10.7903 23.2556 4.20345 15.1331 4.20345ZM20.8689 23.119C20.1419 21.8621 18.7889 21.0173 17.2341 21.0173C15.6794 21.0173 14.3263 21.8621 13.5994 23.119C13.2422 22.5011 13.0321 21.7823 13.0321 21.0173C13.0321 18.6969 14.9146 16.8138 17.2341 16.8138C19.5536 16.8138 21.4361 18.6969 21.4361 21.0173C21.4361 21.7823 21.226 22.5011 20.8689 23.119Z" fill="#999999"/>
</svg>
