<svg width="177" height="34" viewBox="0 0 177 34" fill="none" xmlns="http://www.w3.org/2000/svg">
<path d="M54.8316 16.1762H50.2133L50.1883 14.2362H54.3811C55.0736 14.2362 55.6785 14.1194 56.1959 13.8858C56.7132 13.6522 57.1137 13.3184 57.3974 12.8845C57.6894 12.4423 57.8354 11.9166 57.8354 11.3075C57.8354 10.64 57.7061 10.0977 57.4474 9.68048C57.1971 9.25494 56.8091 8.94622 56.2835 8.75431C55.7661 8.55406 55.107 8.45393 54.306 8.45393H50.7515V24.6994H48.3359V6.47644H54.306C55.2405 6.47644 56.0749 6.57239 56.8091 6.7643C57.5434 6.94787 58.165 7.2399 58.674 7.64041C59.1913 8.03257 59.5835 8.5332 59.8505 9.1423C60.1175 9.7514 60.251 10.4815 60.251 11.3326C60.251 12.0835 60.0591 12.7635 59.6752 13.3726C59.2914 13.9734 58.7574 14.4657 58.0732 14.8495C57.3974 15.2333 56.6047 15.4795 55.6952 15.5879L54.8316 16.1762ZM54.719 24.6994H49.2621L50.6263 22.7344H54.719C55.4866 22.7344 56.1374 22.6009 56.6715 22.3339C57.2138 22.0669 57.6268 21.6915 57.9105 21.2075C58.1942 20.7152 58.3361 20.1353 58.3361 19.4678C58.3361 18.792 58.2151 18.2079 57.9731 17.7156C57.7311 17.2233 57.3515 16.8437 56.8342 16.5767C56.3168 16.3097 55.6493 16.1762 54.8316 16.1762H51.3898L51.4148 14.2362H56.1208L56.6339 14.9371C57.51 15.0122 58.2526 15.2625 58.8617 15.6881C59.4708 16.1053 59.9339 16.6393 60.251 17.2901C60.5764 17.9409 60.7391 18.6585 60.7391 19.4428C60.7391 20.5776 60.4888 21.5371 59.9881 22.3214C59.4958 23.0974 58.7991 23.6898 57.898 24.0987C56.9969 24.4992 55.9372 24.6994 54.719 24.6994Z" fill="#999999"/>
<path d="M63.3424 18.0786V17.7907C63.3424 16.8145 63.4842 15.9092 63.7679 15.0748C64.0516 14.2321 64.4604 13.502 64.9944 12.8845C65.5285 12.2587 66.1751 11.7748 66.9344 11.4327C67.6937 11.0823 68.5448 10.907 69.4876 10.907C70.4388 10.907 71.2941 11.0823 72.0534 11.4327C72.821 11.7748 73.4718 12.2587 74.0058 12.8845C74.5482 13.502 74.9612 14.2321 75.2449 15.0748C75.5286 15.9092 75.6704 16.8145 75.6704 17.7907V18.0786C75.6704 19.0548 75.5286 19.9601 75.2449 20.7945C74.9612 21.6289 74.5482 22.359 74.0058 22.9848C73.4718 23.6022 72.8252 24.0862 72.0659 24.4366C71.3149 24.7787 70.4638 24.9497 69.5126 24.9497C68.5614 24.9497 67.7062 24.7787 66.9469 24.4366C66.1876 24.0862 65.5368 23.6022 64.9944 22.9848C64.4604 22.359 64.0516 21.6289 63.7679 20.7945C63.4842 19.9601 63.3424 19.0548 63.3424 18.0786ZM65.6578 17.7907V18.0786C65.6578 18.7544 65.7371 19.3927 65.8956 19.9935C66.0541 20.5859 66.2919 21.1116 66.609 21.5705C66.9344 22.0294 67.3391 22.3923 67.823 22.6594C68.307 22.918 68.8702 23.0473 69.5126 23.0473C70.1468 23.0473 70.7016 22.918 71.1772 22.6594C71.6612 22.3923 72.0617 22.0294 72.3788 21.5705C72.6958 21.1116 72.9336 20.5859 73.0922 19.9935C73.259 19.3927 73.3425 18.7544 73.3425 18.0786V17.7907C73.3425 17.1232 73.259 16.4932 73.0922 15.9008C72.9336 15.3001 72.6917 14.7702 72.3662 14.3113C72.0492 13.8441 71.6487 13.4769 71.1647 13.2099C70.6891 12.9429 70.1301 12.8094 69.4876 12.8094C68.8535 12.8094 68.2944 12.9429 67.8105 13.2099C67.3349 13.4769 66.9344 13.8441 66.609 14.3113C66.2919 14.7702 66.0541 15.3001 65.8956 15.9008C65.7371 16.4932 65.6578 17.1232 65.6578 17.7907Z" fill="#999999"/>
<path d="M77.9608 18.0786V17.7907C77.9608 16.8145 78.1026 15.9092 78.3863 15.0748C78.67 14.2321 79.0789 13.502 79.6129 12.8845C80.1469 12.2587 80.7935 11.7748 81.5528 11.4327C82.3121 11.0823 83.1632 10.907 84.1061 10.907C85.0573 10.907 85.9125 11.0823 86.6718 11.4327C87.4394 11.7748 88.0902 12.2587 88.6243 12.8845C89.1666 13.502 89.5796 14.2321 89.8633 15.0748C90.147 15.9092 90.2889 16.8145 90.2889 17.7907V18.0786C90.2889 19.0548 90.147 19.9601 89.8633 20.7945C89.5796 21.6289 89.1666 22.359 88.6243 22.9848C88.0902 23.6022 87.4436 24.0862 86.6843 24.4366C85.9334 24.7787 85.0823 24.9497 84.1311 24.9497C83.1799 24.9497 82.3246 24.7787 81.5654 24.4366C80.8061 24.0862 80.1552 23.6022 79.6129 22.9848C79.0789 22.359 78.67 21.6289 78.3863 20.7945C78.1026 19.9601 77.9608 19.0548 77.9608 18.0786ZM80.2762 17.7907V18.0786C80.2762 18.7544 80.3555 19.3927 80.514 19.9935C80.6726 20.5859 80.9104 21.1116 81.2274 21.5705C81.5528 22.0294 81.9575 22.3923 82.4415 22.6594C82.9254 22.918 83.4886 23.0473 84.1311 23.0473C84.7652 23.0473 85.3201 22.918 85.7957 22.6594C86.2796 22.3923 86.6801 22.0294 86.9972 21.5705C87.3143 21.1116 87.5521 20.5859 87.7106 19.9935C87.8775 19.3927 87.9609 18.7544 87.9609 18.0786V17.7907C87.9609 17.1232 87.8775 16.4932 87.7106 15.9008C87.5521 15.3001 87.3101 14.7702 86.9847 14.3113C86.6676 13.8441 86.2671 13.4769 85.7832 13.2099C85.3076 12.9429 84.7485 12.8094 84.1061 12.8094C83.4719 12.8094 82.9129 12.9429 82.4289 13.2099C81.9533 13.4769 81.5528 13.8441 81.2274 14.3113C80.9104 14.7702 80.6726 15.3001 80.514 15.9008C80.3555 16.4932 80.2762 17.1232 80.2762 17.7907Z" fill="#999999"/>
<path d="M95.4954 13.8482V24.6994H93.1675V11.1573H95.3703L95.4954 13.8482ZM95.0198 17.4152L93.9435 17.3777C93.9518 16.4515 94.0728 15.5963 94.3064 14.812C94.5401 14.0193 94.8863 13.3309 95.3452 12.7469C95.8041 12.1628 96.3757 11.7122 97.0599 11.3951C97.7441 11.0697 98.5368 10.907 99.4379 10.907C100.072 10.907 100.656 10.9988 101.19 11.1824C101.724 11.3576 102.187 11.6371 102.579 12.0209C102.972 12.4048 103.276 12.897 103.493 13.4978C103.71 14.0986 103.818 14.8245 103.818 15.6755V24.6994H101.503V15.7882C101.503 15.079 101.382 14.5116 101.14 14.086C100.906 13.6605 100.573 13.3518 100.139 13.1599C99.7049 12.9596 99.1959 12.8595 98.6119 12.8595C97.9277 12.8595 97.3561 12.9805 96.8972 13.2224C96.4383 13.4644 96.0712 13.7982 95.7958 14.2237C95.5205 14.6493 95.3202 15.1374 95.195 15.6881C95.0782 16.2304 95.0198 16.8061 95.0198 17.4152ZM103.793 16.1386L102.241 16.6142C102.25 15.8716 102.371 15.1582 102.604 14.474C102.846 13.7898 103.193 13.1807 103.643 12.6467C104.102 12.1127 104.665 11.6914 105.333 11.3826C106 11.0656 106.764 10.907 107.623 10.907C108.349 10.907 108.992 11.003 109.551 11.1949C110.118 11.3868 110.594 11.683 110.977 12.0835C111.37 12.4757 111.666 12.9805 111.866 13.5979C112.066 14.2154 112.166 14.9496 112.166 15.8007V24.6994H109.839V15.7757C109.839 15.0164 109.718 14.4281 109.476 14.0109C109.242 13.5854 108.908 13.2892 108.474 13.1223C108.049 12.9471 107.54 12.8595 106.947 12.8595C106.438 12.8595 105.988 12.9471 105.596 13.1223C105.204 13.2975 104.874 13.5395 104.607 13.8482C104.34 14.1486 104.135 14.4949 103.994 14.887C103.86 15.2792 103.793 15.6964 103.793 16.1386Z" fill="#999999"/>
<path d="M121.29 24.9497C120.348 24.9497 119.492 24.7912 118.725 24.4741C117.965 24.1487 117.31 23.694 116.76 23.1099C116.217 22.5259 115.8 21.8333 115.508 21.0323C115.216 20.2313 115.07 19.3552 115.07 18.404V17.8783C115.07 16.7769 115.233 15.7965 115.558 14.9371C115.884 14.0694 116.326 13.3351 116.885 12.7343C117.444 12.1336 118.078 11.6788 118.787 11.3701C119.497 11.0614 120.231 10.907 120.99 10.907C121.958 10.907 122.792 11.0739 123.493 11.4077C124.202 11.7414 124.782 12.2087 125.233 12.8094C125.684 13.4018 126.017 14.1027 126.234 14.9121C126.451 15.7131 126.56 16.5892 126.56 17.5404V18.5792H116.447V16.6893H124.244V16.5141C124.211 15.9133 124.086 15.3293 123.869 14.7619C123.66 14.1945 123.326 13.7273 122.867 13.3601C122.409 12.993 121.783 12.8094 120.99 12.8094C120.464 12.8094 119.98 12.9221 119.538 13.1474C119.096 13.3643 118.716 13.6897 118.399 14.1236C118.082 14.5575 117.836 15.0873 117.661 15.7131C117.486 16.3389 117.398 17.0606 117.398 17.8783V18.404C117.398 19.0465 117.486 19.6514 117.661 20.2188C117.844 20.7778 118.107 21.2701 118.449 21.6956C118.8 22.1212 119.221 22.4549 119.713 22.6969C120.214 22.9389 120.781 23.0599 121.416 23.0599C122.233 23.0599 122.926 22.893 123.493 22.5592C124.061 22.2255 124.557 21.7791 124.983 21.22L126.384 22.3339C126.092 22.7762 125.721 23.1975 125.27 23.598C124.82 23.9985 124.265 24.324 123.606 24.5743C122.955 24.8246 122.183 24.9497 121.29 24.9497Z" fill="#999999"/>
<path d="M131.578 13.285V24.6994H129.263V11.1573H131.516L131.578 13.285ZM135.809 11.0822L135.796 13.235C135.604 13.1932 135.421 13.1682 135.246 13.1599C135.079 13.1432 134.887 13.1348 134.67 13.1348C134.136 13.1348 133.664 13.2183 133.256 13.3852C132.847 13.552 132.5 13.7857 132.217 14.086C131.933 14.3864 131.708 14.7452 131.541 15.1624C131.382 15.5712 131.278 16.0218 131.228 16.5141L130.577 16.8896C130.577 16.0719 130.656 15.3042 130.815 14.5867C130.982 13.8691 131.236 13.235 131.578 12.6843C131.921 12.1252 132.354 11.6914 132.88 11.3826C133.414 11.0656 134.048 10.907 134.782 10.907C134.949 10.907 135.141 10.9279 135.358 10.9696C135.575 11.003 135.725 11.0405 135.809 11.0822Z" fill="#999999"/>
<path d="M145.433 22.384V15.4127C145.433 14.8787 145.325 14.4156 145.108 14.0235C144.899 13.623 144.582 13.3142 144.157 13.0973C143.731 12.8804 143.206 12.7719 142.58 12.7719C141.996 12.7719 141.483 12.872 141.04 13.0723C140.606 13.2725 140.264 13.5353 140.014 13.8608C139.772 14.1862 139.651 14.5366 139.651 14.9121H137.336C137.336 14.4281 137.461 13.9484 137.711 13.4728C137.961 12.9972 138.32 12.5675 138.788 12.1836C139.263 11.7915 139.831 11.4828 140.49 11.2575C141.157 11.0238 141.9 10.907 142.717 10.907C143.702 10.907 144.57 11.0739 145.321 11.4077C146.08 11.7414 146.672 12.2462 147.098 12.9221C147.532 13.5896 147.749 14.4281 147.749 15.4377V21.7457C147.749 22.1963 147.786 22.676 147.861 23.185C147.945 23.694 148.066 24.132 148.224 24.4992V24.6994H145.809C145.692 24.4324 145.6 24.0778 145.534 23.6356C145.467 23.185 145.433 22.7678 145.433 22.384ZM145.834 16.4891L145.859 18.1161H143.518C142.859 18.1161 142.271 18.1704 141.754 18.2788C141.236 18.379 140.803 18.5333 140.452 18.7419C140.102 18.9505 139.835 19.2133 139.651 19.5304C139.468 19.8391 139.376 20.2021 139.376 20.6193C139.376 21.0448 139.472 21.4328 139.664 21.7832C139.856 22.1337 140.143 22.4132 140.527 22.6218C140.919 22.8221 141.399 22.9222 141.967 22.9222C142.676 22.9222 143.302 22.772 143.844 22.4716C144.386 22.1712 144.816 21.8041 145.133 21.3702C145.458 20.9363 145.634 20.515 145.659 20.1061L146.647 21.22C146.589 21.5705 146.431 21.9585 146.172 22.384C145.913 22.8095 145.567 23.2184 145.133 23.6106C144.707 23.9944 144.199 24.3156 143.606 24.5743C143.022 24.8246 142.363 24.9497 141.629 24.9497C140.711 24.9497 139.906 24.7703 139.213 24.4116C138.529 24.0528 137.995 23.573 137.611 22.9722C137.236 22.3631 137.048 21.6831 137.048 20.9322C137.048 20.2063 137.19 19.568 137.473 19.0173C137.757 18.4582 138.166 17.9951 138.7 17.628C139.234 17.2525 139.876 16.9688 140.627 16.7769C141.378 16.585 142.217 16.4891 143.143 16.4891H145.834Z" fill="#999999"/>
<path d="M153.706 14.0485V24.6994H151.391V11.1573H153.581L153.706 14.0485ZM153.156 17.4152L152.192 17.3777C152.2 16.4515 152.338 15.5963 152.605 14.812C152.872 14.0193 153.247 13.3309 153.731 12.7469C154.215 12.1628 154.791 11.7122 155.459 11.3951C156.134 11.0697 156.881 10.907 157.699 10.907C158.366 10.907 158.967 10.9988 159.501 11.1824C160.035 11.3576 160.49 11.6413 160.865 12.0334C161.249 12.4256 161.541 12.9346 161.741 13.5604C161.942 14.1778 162.042 14.9329 162.042 15.8257V24.6994H159.714V15.8007C159.714 15.0915 159.61 14.5241 159.401 14.0986C159.192 13.6647 158.888 13.3518 158.487 13.1599C158.087 12.9596 157.595 12.8595 157.011 12.8595C156.435 12.8595 155.909 12.9805 155.434 13.2224C154.966 13.4644 154.562 13.7982 154.219 14.2237C153.886 14.6493 153.623 15.1374 153.431 15.6881C153.247 16.2304 153.156 16.8061 153.156 17.4152Z" fill="#999999"/>
<path d="M174.332 11.1573H176.435V24.4116C176.435 25.6047 176.193 26.6227 175.709 27.4654C175.225 28.3081 174.549 28.9464 173.682 29.3803C172.822 29.8226 171.829 30.0437 170.703 30.0437C170.236 30.0437 169.685 29.9686 169.051 29.8184C168.425 29.6765 167.807 29.4304 167.198 29.08C166.598 28.7379 166.093 28.2748 165.684 27.6907L166.898 26.314C167.465 26.9982 168.058 27.4738 168.675 27.7408C169.301 28.0078 169.918 28.1413 170.528 28.1413C171.262 28.1413 171.896 28.0036 172.43 27.7282C172.964 27.4529 173.377 27.0441 173.669 26.5017C173.969 25.9677 174.12 25.3085 174.12 24.5242V14.1361L174.332 11.1573ZM165.008 18.0786V17.8157C165.008 16.7811 165.129 15.8424 165.371 14.9997C165.621 14.1486 165.976 13.4185 166.435 12.8094C166.902 12.2003 167.465 11.7331 168.125 11.4077C168.784 11.0739 169.526 10.907 170.352 10.907C171.203 10.907 171.946 11.0572 172.58 11.3576C173.223 11.6496 173.765 12.0793 174.207 12.6467C174.658 13.2058 175.012 13.8816 175.271 14.6743C175.53 15.4669 175.709 16.3639 175.809 17.3652V18.5166C175.717 19.5095 175.538 20.4023 175.271 21.195C175.012 21.9877 174.658 22.6635 174.207 23.2226C173.765 23.7816 173.223 24.2113 172.58 24.5117C171.938 24.8037 171.187 24.9497 170.327 24.9497C169.518 24.9497 168.784 24.7787 168.125 24.4366C167.474 24.0945 166.915 23.6147 166.447 22.9973C165.98 22.3798 165.621 21.6539 165.371 20.8195C165.129 19.9768 165.008 19.0632 165.008 18.0786ZM167.324 17.8157V18.0786C167.324 18.7544 167.39 19.3886 167.524 19.981C167.666 20.5734 167.878 21.0949 168.162 21.5454C168.454 21.996 168.825 22.3506 169.276 22.6093C169.727 22.8596 170.265 22.9848 170.891 22.9848C171.658 22.9848 172.292 22.8221 172.793 22.4966C173.294 22.1712 173.69 21.7415 173.982 21.2075C174.282 20.6735 174.516 20.0936 174.683 19.4678V16.4515C174.591 15.9926 174.449 15.5504 174.257 15.1248C174.074 14.691 173.832 14.3072 173.531 13.9734C173.239 13.6313 172.876 13.3601 172.442 13.1599C172.009 12.9596 171.5 12.8595 170.916 12.8595C170.281 12.8595 169.735 12.993 169.276 13.26C168.825 13.5187 168.454 13.8774 168.162 14.3364C167.878 14.7869 167.666 15.3126 167.524 15.9133C167.39 16.5058 167.324 17.1399 167.324 17.8157Z" fill="#999999"/>
<path d="M15.025 14.6434C21.4751 10.5913 30.1775 13.5925 26.5385 20.6838C22.8996 27.7708 -10.372 14.635 3.26355 21.163C16.8991 27.6909 22.1558 40.9864 27.7361 28.4181C33.3164 15.8498 40.0396 -11.3465 21.1305 5.18146C2.22145 21.7094 6.97394 19.696 15.025 14.6434Z" fill="#999999"/>
</svg>
