<svg width="217" height="41" viewBox="0 0 217 41" fill="none" xmlns="http://www.w3.org/2000/svg">
<path d="M66.3568 19.5761H60.7678L60.7375 17.2284H65.8115C66.6496 17.2284 67.3817 17.087 68.0077 16.8043C68.6338 16.5215 69.1185 16.1176 69.4618 15.5926C69.8152 15.0574 69.9919 14.4212 69.9919 13.6841C69.9919 12.8763 69.8354 12.22 69.5224 11.7151C69.2195 11.2001 68.7499 10.8265 68.1138 10.5942C67.4877 10.3519 66.69 10.2307 65.7206 10.2307H61.419V29.8908H58.4958V7.83759H65.7206C66.8516 7.83759 67.8613 7.95371 68.7499 8.18596C69.6385 8.4081 70.3908 8.76152 71.0067 9.24621C71.6328 9.7208 72.1074 10.3267 72.4305 11.0638C72.7536 11.8009 72.9152 12.6844 72.9152 13.7144C72.9152 14.6232 72.683 15.4462 72.2185 16.1833C71.754 16.9103 71.1077 17.5061 70.2797 17.9706C69.4618 18.435 68.5025 18.7329 67.4019 18.8642L66.3568 19.5761ZM66.2205 29.8908H59.6166L61.2676 27.5128H66.2205C67.1495 27.5128 67.9371 27.3513 68.5833 27.0281C69.2397 26.705 69.7395 26.2506 70.0828 25.665C70.4261 25.0692 70.5978 24.3674 70.5978 23.5596C70.5978 22.7417 70.4514 22.0349 70.1585 21.4391C69.8657 20.8433 69.4063 20.3839 68.7802 20.0608C68.1542 19.7376 67.3464 19.5761 66.3568 19.5761H62.1915L62.2218 17.2284H67.9169L68.5379 18.0766C69.5981 18.1675 70.4968 18.4704 71.2339 18.9854C71.9711 19.4903 72.5315 20.1365 72.9152 20.9241C73.309 21.7117 73.5059 22.5801 73.5059 23.5293C73.5059 24.9026 73.203 26.0638 72.5971 27.013C72.0014 27.9521 71.1582 28.669 70.0677 29.1638C68.9771 29.6485 67.6947 29.8908 66.2205 29.8908ZM76.6564 21.8783V21.53C76.6564 20.3485 76.828 19.253 77.1713 18.2432C77.5147 17.2233 78.0095 16.3398 78.6557 15.5926C79.3019 14.8352 80.0845 14.2496 81.0034 13.8356C81.9223 13.4115 82.9522 13.1994 84.0933 13.1994C85.2444 13.1994 86.2794 13.4115 87.1983 13.8356C88.1273 14.2496 88.9149 14.8352 89.5611 15.5926C90.2175 16.3398 90.7173 17.2233 91.0606 18.2432C91.404 19.253 91.5756 20.3485 91.5756 21.53V21.8783C91.5756 23.0598 91.404 24.1554 91.0606 25.1651C90.7173 26.1749 90.2175 27.0584 89.5611 27.8157C88.9149 28.563 88.1323 29.1486 87.2134 29.5727C86.3047 29.9867 85.2747 30.1937 84.1236 30.1937C82.9724 30.1937 81.9374 29.9867 81.0185 29.5727C80.0997 29.1486 79.312 28.563 78.6557 27.8157C78.0095 27.0584 77.5147 26.1749 77.1713 25.1651C76.828 24.1554 76.6564 23.0598 76.6564 21.8783ZM79.4585 21.53V21.8783C79.4585 22.6962 79.5544 23.4687 79.7462 24.1957C79.9381 24.9127 80.2259 25.5488 80.6096 26.1042C81.0034 26.6596 81.4931 27.0988 82.0788 27.4219C82.6645 27.735 83.346 27.8915 84.1236 27.8915C84.891 27.8915 85.5625 27.735 86.138 27.4219C86.7237 27.0988 87.2084 26.6596 87.5921 26.1042C87.9758 25.5488 88.2636 24.9127 88.4554 24.1957C88.6574 23.4687 88.7584 22.6962 88.7584 21.8783V21.53C88.7584 20.7222 88.6574 19.9598 88.4554 19.2429C88.2636 18.5158 87.9708 17.8746 87.577 17.3193C87.1932 16.7538 86.7086 16.3095 86.1229 15.9864C85.5473 15.6632 84.8708 15.5017 84.0933 15.5017C83.3259 15.5017 82.6493 15.6632 82.0636 15.9864C81.4881 16.3095 81.0034 16.7538 80.6096 17.3193C80.2259 17.8746 79.9381 18.5158 79.7462 19.2429C79.5544 19.9598 79.4585 20.7222 79.4585 21.53ZM94.3474 21.8783V21.53C94.3474 20.3485 94.5191 19.253 94.8624 18.2432C95.2057 17.2233 95.7005 16.3398 96.3467 15.5926C96.993 14.8352 97.7756 14.2496 98.6944 13.8356C99.6133 13.4115 100.643 13.1994 101.784 13.1994C102.935 13.1994 103.97 13.4115 104.889 13.8356C105.818 14.2496 106.606 14.8352 107.252 15.5926C107.909 16.3398 108.408 17.2233 108.752 18.2432C109.095 19.253 109.267 20.3485 109.267 21.53V21.8783C109.267 23.0598 109.095 24.1554 108.752 25.1651C108.408 26.1749 107.909 27.0584 107.252 27.8157C106.606 28.563 105.823 29.1486 104.904 29.5727C103.996 29.9867 102.966 30.1937 101.815 30.1937C100.663 30.1937 99.6285 29.9867 98.7096 29.5727C97.7907 29.1486 97.0031 28.563 96.3467 27.8157C95.7005 27.0584 95.2057 26.1749 94.8624 25.1651C94.5191 24.1554 94.3474 23.0598 94.3474 21.8783ZM97.1495 21.53V21.8783C97.1495 22.6962 97.2454 23.4687 97.4373 24.1957C97.6291 24.9127 97.9169 25.5488 98.3006 26.1042C98.6944 26.6596 99.1842 27.0988 99.7698 27.4219C100.356 27.735 101.037 27.8915 101.815 27.8915C102.582 27.8915 103.254 27.735 103.829 27.4219C104.415 27.0988 104.899 26.6596 105.283 26.1042C105.667 25.5488 105.955 24.9127 106.146 24.1957C106.348 23.4687 106.449 22.6962 106.449 21.8783V21.53C106.449 20.7222 106.348 19.9598 106.146 19.2429C105.955 18.5158 105.662 17.8746 105.268 17.3193C104.884 16.7538 104.4 16.3095 103.814 15.9864C103.238 15.6632 102.562 15.5017 101.784 15.5017C101.017 15.5017 100.34 15.6632 99.7547 15.9864C99.1791 16.3095 98.6944 16.7538 98.3006 17.3193C97.9169 17.8746 97.6291 18.5158 97.4373 19.2429C97.2454 19.9598 97.1495 20.7222 97.1495 21.53ZM115.568 16.7588V29.8908H112.75V13.5024H115.416L115.568 16.7588ZM114.992 21.0756L113.689 21.0301C113.7 19.9093 113.846 18.8743 114.129 17.9251C114.411 16.9658 114.83 16.1328 115.386 15.426C115.941 14.7191 116.633 14.1738 117.461 13.7901C118.289 13.3963 119.248 13.1994 120.339 13.1994C121.106 13.1994 121.813 13.3105 122.459 13.5327C123.105 13.7447 123.666 14.083 124.14 14.5475C124.615 15.012 124.984 15.6077 125.246 16.3347C125.509 17.0618 125.64 17.9403 125.64 18.9702V29.8908H122.838V19.1065C122.838 18.2482 122.691 17.5616 122.399 17.0466C122.116 16.5316 121.712 16.158 121.187 15.9258C120.662 15.6834 120.046 15.5623 119.339 15.5623C118.511 15.5623 117.819 15.7087 117.264 16.0015C116.709 16.2944 116.264 16.6983 115.931 17.2132C115.598 17.7282 115.356 18.3189 115.204 18.9854C115.063 19.6417 114.992 20.3385 114.992 21.0756ZM125.61 19.5306L123.732 20.1062C123.742 19.2075 123.888 18.3442 124.171 17.5162C124.464 16.6882 124.883 15.951 125.428 15.3048C125.983 14.6585 126.665 14.1486 127.473 13.775C128.28 13.3913 129.204 13.1994 130.244 13.1994C131.123 13.1994 131.9 13.3156 132.577 13.5478C133.264 13.78 133.839 14.1385 134.304 14.6232C134.778 15.0978 135.137 15.7087 135.379 16.4559C135.621 17.2031 135.743 18.0917 135.743 19.1217V29.8908H132.925V19.0914C132.925 18.1725 132.779 17.4606 132.486 16.9557C132.203 16.4408 131.8 16.0823 131.274 15.8803C130.759 15.6683 130.144 15.5623 129.427 15.5623C128.811 15.5623 128.265 15.6683 127.791 15.8803C127.316 16.0924 126.917 16.3852 126.594 16.7588C126.271 17.1224 126.024 17.5414 125.852 18.016C125.69 18.4906 125.61 18.9955 125.61 19.5306ZM146.784 30.1937C145.643 30.1937 144.608 30.0019 143.679 29.6182C142.76 29.2244 141.968 28.674 141.301 27.9672C140.645 27.2604 140.14 26.4223 139.787 25.4529C139.433 24.4835 139.257 23.4233 139.257 22.2721V21.636C139.257 20.3031 139.454 19.1166 139.847 18.0766C140.241 17.0264 140.776 16.1378 141.453 15.4108C142.129 14.6838 142.897 14.1335 143.755 13.7598C144.613 13.3862 145.502 13.1994 146.421 13.1994C147.592 13.1994 148.602 13.4014 149.45 13.8053C150.308 14.2092 151.01 14.7747 151.556 15.5017C152.101 16.2186 152.505 17.0668 152.767 18.0463C153.03 19.0157 153.161 20.0759 153.161 21.227V22.4842H140.923V20.1971H150.359V19.985C150.319 19.258 150.167 18.5512 149.905 17.8645C149.652 17.1779 149.248 16.6124 148.693 16.1681C148.137 15.7238 147.38 15.5017 146.421 15.5017C145.785 15.5017 145.199 15.638 144.664 15.9106C144.129 16.1732 143.669 16.567 143.286 17.0921C142.902 17.6171 142.604 18.2583 142.392 19.0157C142.18 19.773 142.074 20.6464 142.074 21.636V22.2721C142.074 23.0497 142.18 23.7817 142.392 24.4684C142.614 25.1449 142.932 25.7407 143.346 26.2557C143.77 26.7706 144.28 27.1745 144.876 27.4674C145.482 27.7602 146.168 27.9066 146.936 27.9066C147.925 27.9066 148.764 27.7047 149.45 27.3008C150.137 26.8969 150.738 26.3566 151.253 25.6801L152.949 27.0281C152.596 27.5633 152.146 28.0732 151.601 28.5579C151.056 29.0426 150.384 29.4364 149.586 29.7393C148.799 30.0423 147.865 30.1937 146.784 30.1937ZM159.235 16.0773V29.8908H156.433V13.5024H159.159L159.235 16.0773ZM164.354 13.4115L164.339 16.0167C164.107 15.9662 163.885 15.9359 163.673 15.9258C163.471 15.9056 163.238 15.8955 162.976 15.8955C162.33 15.8955 161.759 15.9965 161.264 16.1984C160.77 16.4004 160.351 16.6831 160.007 17.0466C159.664 17.4101 159.391 17.8443 159.189 18.3492C158.997 18.844 158.871 19.3893 158.811 19.985L158.023 20.4394C158.023 19.4499 158.119 18.5209 158.311 17.6525C158.513 16.7841 158.821 16.0167 159.235 15.3502C159.649 14.6737 160.174 14.1486 160.81 13.775C161.456 13.3913 162.224 13.1994 163.112 13.1994C163.314 13.1994 163.546 13.2247 163.809 13.2752C164.072 13.3156 164.253 13.361 164.354 13.4115ZM176.002 27.0887V18.6521C176.002 18.0059 175.871 17.4455 175.608 16.9709C175.356 16.4862 174.972 16.1126 174.457 15.8501C173.942 15.5875 173.306 15.4562 172.548 15.4562C171.842 15.4562 171.221 15.5774 170.685 15.8198C170.16 16.0621 169.746 16.3802 169.443 16.774C169.151 17.1678 169.004 17.5919 169.004 18.0463H166.202C166.202 17.4606 166.354 16.88 166.657 16.3044C166.959 15.7289 167.394 15.2089 167.959 14.7444C168.535 14.2698 169.221 13.8962 170.019 13.6235C170.827 13.3408 171.726 13.1994 172.715 13.1994C173.907 13.1994 174.957 13.4014 175.866 13.8053C176.784 14.2092 177.501 14.8201 178.016 15.638C178.541 16.4458 178.804 17.4606 178.804 18.6824V26.3162C178.804 26.8615 178.849 27.4421 178.94 28.0581C179.041 28.674 179.188 29.2042 179.38 29.6485V29.8908H176.456C176.315 29.5677 176.204 29.1385 176.123 28.6034C176.042 28.0581 176.002 27.5532 176.002 27.0887ZM176.487 19.9547L176.517 21.9238H173.684C172.887 21.9238 172.175 21.9894 171.549 22.1207C170.923 22.2419 170.398 22.4287 169.974 22.6811C169.549 22.9335 169.226 23.2516 169.004 23.6353C168.782 24.0089 168.671 24.4482 168.671 24.9531C168.671 25.468 168.787 25.9376 169.019 26.3617C169.252 26.7858 169.6 27.1241 170.064 27.3765C170.539 27.6188 171.12 27.74 171.806 27.74C172.665 27.74 173.422 27.5583 174.078 27.1947C174.735 26.8312 175.255 26.3869 175.638 25.8619C176.032 25.3368 176.244 24.8268 176.275 24.3321L177.471 25.6801C177.4 26.1042 177.209 26.5737 176.896 27.0887C176.582 27.6037 176.163 28.0985 175.638 28.5731C175.123 29.0376 174.507 29.4263 173.791 29.7393C173.084 30.0423 172.286 30.1937 171.397 30.1937C170.287 30.1937 169.312 29.9766 168.474 29.5424C167.646 29.1082 167 28.5276 166.535 27.8006C166.081 27.0635 165.854 26.2405 165.854 25.3317C165.854 24.4532 166.025 23.6808 166.369 23.0143C166.712 22.3378 167.207 21.7774 167.853 21.3331C168.499 20.8787 169.277 20.5354 170.186 20.3031C171.094 20.0709 172.109 19.9547 173.23 19.9547H176.487ZM186.014 17.0012V29.8908H183.212V13.5024H185.862L186.014 17.0012ZM185.347 21.0756L184.181 21.0301C184.191 19.9093 184.358 18.8743 184.681 17.9251C185.004 16.9658 185.458 16.1328 186.044 15.426C186.63 14.7191 187.326 14.1738 188.134 13.7901C188.952 13.3963 189.856 13.1994 190.845 13.1994C191.653 13.1994 192.38 13.3105 193.026 13.5327C193.673 13.7447 194.223 14.088 194.677 14.5626C195.142 15.0372 195.495 15.6532 195.738 16.4105C195.98 17.1577 196.101 18.0715 196.101 19.152V29.8908H193.284V19.1217C193.284 18.2634 193.158 17.5768 192.905 17.0618C192.653 16.5367 192.284 16.158 191.8 15.9258C191.315 15.6834 190.719 15.5623 190.012 15.5623C189.316 15.5623 188.679 15.7087 188.104 16.0015C187.538 16.2944 187.049 16.6983 186.635 17.2132C186.231 17.7282 185.913 18.3189 185.68 18.9854C185.458 19.6417 185.347 20.3385 185.347 21.0756ZM210.975 13.5024H213.52V29.5424C213.52 30.9864 213.227 32.2183 212.641 33.2382C212.055 34.258 211.238 35.0305 210.187 35.5556C209.147 36.0908 207.946 36.3583 206.583 36.3583C206.017 36.3583 205.351 36.2675 204.583 36.0857C203.826 35.914 203.079 35.6162 202.342 35.1921C201.615 34.7781 201.004 34.2176 200.509 33.5108L201.978 31.8447C202.665 32.6727 203.382 33.2483 204.129 33.5714C204.886 33.8945 205.633 34.0561 206.37 34.0561C207.259 34.0561 208.027 33.8895 208.673 33.5562C209.319 33.223 209.819 32.7282 210.172 32.0719C210.536 31.4256 210.718 30.6279 210.718 29.6788V17.1072L210.975 13.5024ZM199.691 21.8783V21.5603C199.691 20.3082 199.837 19.1722 200.13 18.1523C200.433 17.1224 200.862 16.2388 201.418 15.5017C201.983 14.7646 202.665 14.1991 203.462 13.8053C204.26 13.4014 205.159 13.1994 206.158 13.1994C207.188 13.1994 208.087 13.3812 208.855 13.7447C209.632 14.0981 210.288 14.6181 210.824 15.3048C211.369 15.9813 211.798 16.7992 212.111 17.7585C212.424 18.7178 212.641 19.8033 212.762 21.015V22.4085C212.651 23.6101 212.434 24.6905 212.111 25.6498C211.798 26.6091 211.369 27.427 210.824 28.1035C210.288 28.7801 209.632 29.3001 208.855 29.6636C208.077 30.017 207.168 30.1937 206.128 30.1937C205.149 30.1937 204.26 29.9867 203.462 29.5727C202.675 29.1587 201.998 28.5781 201.433 27.8309C200.867 27.0837 200.433 26.2052 200.13 25.1954C199.837 24.1756 199.691 23.0699 199.691 21.8783ZM202.493 21.5603V21.8783C202.493 22.6962 202.574 23.4637 202.735 24.1806C202.907 24.8975 203.164 25.5286 203.508 26.0739C203.861 26.6192 204.311 27.0483 204.856 27.3614C205.401 27.6643 206.052 27.8157 206.81 27.8157C207.739 27.8157 208.506 27.6188 209.112 27.225C209.718 26.8312 210.197 26.3112 210.551 25.665C210.914 25.0187 211.197 24.3169 211.399 23.5596V19.9093C211.288 19.3539 211.116 18.8188 210.884 18.3038C210.662 17.7787 210.369 17.3142 210.006 16.9103C209.652 16.4963 209.213 16.1681 208.688 15.9258C208.163 15.6834 207.547 15.5623 206.84 15.5623C206.073 15.5623 205.411 15.7238 204.856 16.047C204.311 16.36 203.861 16.7942 203.508 17.3496C203.164 17.8948 202.907 18.531 202.735 19.258C202.574 19.9749 202.493 20.7424 202.493 21.5603Z" fill="#111111"/>
<path d="M18.1831 17.7211C25.9889 12.8173 36.5204 16.4494 32.1166 25.0311C27.7128 33.6077 -12.5521 17.7109 3.9495 25.611C20.4511 33.511 26.8127 49.6011 33.5659 34.3911C40.3191 19.1811 48.4555 -13.7315 25.5719 6.27039C2.68837 26.2723 8.43977 23.8356 18.1831 17.7211Z" fill="#111111"/>
</svg>
