<svg width="128" height="34" viewBox="0 0 128 34" fill="none" xmlns="http://www.w3.org/2000/svg">
<path d="M53.4561 24.6788H49.6513L49.6764 22.7139H53.4561C54.7578 22.7139 55.8425 22.4427 56.7102 21.9003C57.578 21.3496 58.2288 20.582 58.6627 19.5974C59.1049 18.6045 59.326 17.4447 59.326 16.118V15.0041C59.326 13.9612 59.2009 13.035 58.9506 12.2256C58.7002 11.4079 58.3331 10.7196 57.8492 10.1605C57.3652 9.59314 56.7728 9.16343 56.0719 8.8714C55.3794 8.57936 54.5825 8.43335 53.6814 8.43335H49.5762V6.45585H53.6814C54.8746 6.45585 55.9635 6.65611 56.948 7.05661C57.9326 7.44877 58.7795 8.02033 59.4887 8.77127C60.2063 9.51388 60.757 10.415 61.1408 11.4747C61.5246 12.526 61.7165 13.7108 61.7165 15.0292V16.118C61.7165 17.4364 61.5246 18.6254 61.1408 19.685C60.757 20.7364 60.2021 21.6333 59.4762 22.3759C58.7586 23.1185 57.8909 23.6901 56.8729 24.0906C55.8633 24.4828 54.7244 24.6788 53.4561 24.6788ZM50.9404 6.45585V24.6788H48.5249V6.45585H50.9404Z" fill="#999999"/>
<path d="M67.3111 13.2644V24.6788H64.9957V11.1368H67.2485L67.3111 13.2644ZM71.5414 11.0617L71.5289 13.2144C71.337 13.1727 71.1534 13.1476 70.9782 13.1393C70.8113 13.1226 70.6194 13.1143 70.4025 13.1143C69.8685 13.1143 69.3971 13.1977 68.9882 13.3646C68.5794 13.5314 68.2331 13.7651 67.9494 14.0655C67.6657 14.3658 67.4404 14.7246 67.2736 15.1418C67.115 15.5507 67.0107 16.0012 66.9607 16.4935L66.3098 16.869C66.3098 16.0513 66.3891 15.2837 66.5476 14.5661C66.7145 13.8485 66.969 13.2144 67.3111 12.6637C67.6532 12.1046 68.0871 11.6708 68.6127 11.362C69.1467 11.045 69.7809 10.8864 70.5151 10.8864C70.682 10.8864 70.8739 10.9073 71.0909 10.949C71.3078 10.9824 71.458 11.0199 71.5414 11.0617Z" fill="#999999"/>
<path d="M72.818 18.058V17.7701C72.818 16.7939 72.9599 15.8886 73.2436 15.0542C73.5273 14.2115 73.9361 13.4814 74.4701 12.8639C75.0041 12.2381 75.6508 11.7542 76.4101 11.4121C77.1694 11.0617 78.0204 10.8864 78.9633 10.8864C79.9145 10.8864 80.7697 11.0617 81.529 11.4121C82.2967 11.7542 82.9475 12.2381 83.4815 12.8639C84.0238 13.4814 84.4369 14.2115 84.7206 15.0542C85.0042 15.8886 85.1461 16.7939 85.1461 17.7701V18.058C85.1461 19.0342 85.0042 19.9395 84.7206 20.7739C84.4369 21.6083 84.0238 22.3384 83.4815 22.9642C82.9475 23.5816 82.3008 24.0656 81.5415 24.416C80.7906 24.7581 79.9395 24.9292 78.9883 24.9292C78.0371 24.9292 77.1819 24.7581 76.4226 24.416C75.6633 24.0656 75.0125 23.5816 74.4701 22.9642C73.9361 22.3384 73.5273 21.6083 73.2436 20.7739C72.9599 19.9395 72.818 19.0342 72.818 18.058ZM75.1335 17.7701V18.058C75.1335 18.7338 75.2127 19.3721 75.3713 19.9729C75.5298 20.5653 75.7676 21.091 76.0847 21.5499C76.4101 22.0088 76.8148 22.3718 77.2987 22.6388C77.7826 22.8974 78.3458 23.0268 78.9883 23.0268C79.6225 23.0268 80.1773 22.8974 80.6529 22.6388C81.1369 22.3718 81.5374 22.0088 81.8544 21.5499C82.1715 21.091 82.4093 20.5653 82.5678 19.9729C82.7347 19.3721 82.8182 18.7338 82.8182 18.058V17.7701C82.8182 17.1026 82.7347 16.4727 82.5678 15.8802C82.4093 15.2795 82.1673 14.7496 81.8419 14.2907C81.5249 13.8235 81.1244 13.4564 80.6404 13.1893C80.1648 12.9223 79.6058 12.7888 78.9633 12.7888C78.3292 12.7888 77.7701 12.9223 77.2862 13.1893C76.8106 13.4564 76.4101 13.8235 76.0847 14.2907C75.7676 14.7496 75.5298 15.2795 75.3713 15.8802C75.2127 16.4727 75.1335 17.1026 75.1335 17.7701Z" fill="#999999"/>
<path d="M90.3652 13.74V29.8854H88.0372V11.1368H90.1649L90.3652 13.74ZM99.4892 17.7952V18.058C99.4892 19.0426 99.3724 19.9562 99.1387 20.7989C98.9051 21.6333 98.563 22.3592 98.1124 22.9767C97.6702 23.5941 97.1237 24.0739 96.4729 24.416C95.8221 24.7581 95.0753 24.9292 94.2326 24.9292C93.3731 24.9292 92.6138 24.7873 91.9547 24.5036C91.2955 24.2199 90.7365 23.8069 90.2776 23.2646C89.8187 22.7222 89.4515 22.0714 89.1762 21.3121C88.9092 20.5528 88.7256 19.6976 88.6255 18.7464V17.3446C88.7256 16.3433 88.9133 15.4464 89.1887 14.6537C89.464 13.861 89.827 13.1852 90.2776 12.6261C90.7365 12.0588 91.2913 11.629 91.9422 11.337C92.593 11.0366 93.3439 10.8864 94.195 10.8864C95.0461 10.8864 95.8012 11.0533 96.4604 11.3871C97.1195 11.7125 97.6744 12.1797 98.125 12.7888C98.5755 13.3979 98.9135 14.128 99.1387 14.9791C99.3724 15.8218 99.4892 16.7605 99.4892 17.7952ZM97.1613 18.058V17.7952C97.1613 17.1193 97.0903 16.4852 96.9485 15.8928C96.8066 15.292 96.5855 14.7663 96.2851 14.3158C95.9931 13.8569 95.6176 13.4981 95.1587 13.2394C94.6998 12.9724 94.1533 12.8389 93.5192 12.8389C92.9351 12.8389 92.4261 12.939 91.9922 13.1393C91.5667 13.3395 91.2037 13.6107 90.9034 13.9528C90.603 14.2866 90.3568 14.6704 90.1649 15.1043C89.9814 15.5298 89.8437 15.972 89.7519 16.4309V19.6725C89.9188 20.2566 90.1524 20.8073 90.4528 21.3246C90.7532 21.8336 91.1537 22.2466 91.6543 22.5637C92.1549 22.8724 92.7849 23.0268 93.5442 23.0268C94.17 23.0268 94.7082 22.8974 95.1587 22.6388C95.6176 22.3718 95.9931 22.0088 96.2851 21.5499C96.5855 21.091 96.8066 20.5653 96.9485 19.9729C97.0903 19.3721 97.1613 18.7338 97.1613 18.058Z" fill="#999999"/>
<path d="M104.959 5.45459V24.6788H102.631V5.45459H104.959Z" fill="#999999"/>
<path d="M114.295 24.9292C113.353 24.9292 112.497 24.7706 111.73 24.4536C110.97 24.1281 110.315 23.6734 109.765 23.0893C109.222 22.5053 108.805 21.8127 108.513 21.0117C108.221 20.2107 108.075 19.3346 108.075 18.3834V17.8577C108.075 16.7563 108.238 15.7759 108.563 14.9165C108.889 14.0488 109.331 13.3145 109.89 12.7137C110.449 12.113 111.083 11.6582 111.792 11.3495C112.501 11.0408 113.236 10.8864 113.995 10.8864C114.963 10.8864 115.797 11.0533 116.498 11.3871C117.207 11.7208 117.787 12.1881 118.238 12.7888C118.688 13.3813 119.022 14.0821 119.239 14.8915C119.456 15.6925 119.565 16.5686 119.565 17.5198V18.5586H109.452V16.6687H117.249V16.4935C117.216 15.8928 117.091 15.3087 116.874 14.7413C116.665 14.1739 116.331 13.7067 115.872 13.3395C115.413 12.9724 114.788 12.7888 113.995 12.7888C113.469 12.7888 112.985 12.9015 112.543 13.1268C112.101 13.3437 111.721 13.6691 111.404 14.103C111.087 14.5369 110.841 15.0667 110.666 15.6925C110.491 16.3183 110.403 17.04 110.403 17.8577V18.3834C110.403 19.0259 110.491 19.6308 110.666 20.1982C110.849 20.7572 111.112 21.2495 111.454 21.675C111.805 22.1006 112.226 22.4343 112.718 22.6763C113.219 22.9183 113.786 23.0393 114.421 23.0393C115.238 23.0393 115.931 22.8724 116.498 22.5386C117.066 22.2049 117.562 21.7585 117.988 21.1995L119.389 22.3134C119.097 22.7556 118.726 23.1769 118.275 23.5774C117.825 23.978 117.27 24.3034 116.611 24.5537C115.96 24.804 115.188 24.9292 114.295 24.9292Z" fill="#999999"/>
<path d="M127.938 11.1368V12.914H120.616V11.1368H127.938ZM123.094 7.84511H125.409V21.3246C125.409 21.7835 125.48 22.1298 125.622 22.3634C125.764 22.597 125.948 22.7514 126.173 22.8265C126.398 22.9016 126.64 22.9391 126.899 22.9391C127.091 22.9391 127.291 22.9225 127.5 22.8891C127.716 22.8474 127.879 22.814 127.988 22.789L128 24.6788C127.817 24.7372 127.575 24.7915 127.274 24.8415C126.982 24.9 126.628 24.9292 126.21 24.9292C125.643 24.9292 125.122 24.8165 124.646 24.5912C124.17 24.3659 123.791 23.9905 123.507 23.4648C123.232 22.9308 123.094 22.2132 123.094 21.3121V7.84511Z" fill="#999999"/>
<path d="M2.98586 10.1127C12.5287 -6.4531 29.53 -1.3375 24.1893 15.8294C18.8485 32.9963 34.5346 16.5986 33.7783 26.544C33.0219 36.4893 3.33884 35.7243 12.8774 25.7705C22.4118 15.8168 23.5085 12.3994 13.701 18.8054C3.8935 25.2115 -4.32145 22.7945 2.98586 10.1127Z" fill="#999999"/>
<path d="M2.98586 10.1127C12.5287 -6.4531 29.53 -1.3375 24.1893 15.8294C18.8485 32.9963 34.5346 16.5986 33.7783 26.544C33.0219 36.4893 3.33884 35.7243 12.8774 25.7705C22.4118 15.8168 23.5085 12.3994 13.701 18.8054C3.8935 25.2115 -4.32145 22.7945 2.98586 10.1127Z" fill="#999999"/>
</svg>
