<svg width="161" height="34" viewBox="0 0 161 34" fill="none" xmlns="http://www.w3.org/2000/svg">
<path d="M62.3677 14.9938V16.1453C62.3677 17.5137 62.1966 18.7402 61.8545 19.8249C61.5124 20.9096 61.0201 21.8316 60.3776 22.5909C59.7352 23.3502 58.9634 23.9301 58.0622 24.3306C57.1694 24.7311 56.1682 24.9314 55.0584 24.9314C53.9821 24.9314 52.9933 24.7311 52.0922 24.3306C51.1994 23.9301 50.4234 23.3502 49.7643 22.5909C49.1134 21.8316 48.6086 20.9096 48.2498 19.8249C47.8911 18.7402 47.7117 17.5137 47.7117 16.1453V14.9938C47.7117 13.6255 47.8869 12.4031 48.2373 11.3267C48.5961 10.242 49.1009 9.32002 49.7517 8.56073C50.4026 7.7931 51.1744 7.20903 52.0672 6.80852C52.9683 6.40802 53.957 6.20776 55.0334 6.20776C56.1431 6.20776 57.1444 6.40802 58.0372 6.80852C58.9383 7.20903 59.7101 7.7931 60.3526 8.56073C61.0034 9.32002 61.4999 10.242 61.842 11.3267C62.1924 12.4031 62.3677 13.6255 62.3677 14.9938ZM59.9771 16.1453V14.9688C59.9771 13.8841 59.8645 12.9246 59.6392 12.0902C59.4223 11.2558 59.101 10.5549 58.6755 9.98753C58.25 9.42015 57.7285 8.99044 57.111 8.6984C56.5019 8.40637 55.8094 8.26035 55.0334 8.26035C54.2825 8.26035 53.6024 8.40637 52.9933 8.6984C52.3926 8.99044 51.8753 9.42015 51.4414 9.98753C51.0158 10.5549 50.6863 11.2558 50.4526 12.0902C50.219 12.9246 50.1022 13.8841 50.1022 14.9688V16.1453C50.1022 17.2383 50.219 18.2062 50.4526 19.049C50.6863 19.8833 51.02 20.5884 51.4539 21.1641C51.8961 21.7315 52.4176 22.1612 53.0184 22.4533C53.6275 22.7453 54.3075 22.8913 55.0584 22.8913C55.8428 22.8913 56.5395 22.7453 57.1486 22.4533C57.7577 22.1612 58.2708 21.7315 58.688 21.1641C59.1136 20.5884 59.4348 19.8833 59.6517 19.049C59.8687 18.2062 59.9771 17.2383 59.9771 16.1453Z" fill="#999999"/>
<path d="M67.9497 13.7423V29.8876H65.6218V11.139H67.7494L67.9497 13.7423ZM77.0737 17.7974V18.0602C77.0737 19.0448 76.9569 19.9584 76.7233 20.8012C76.4896 21.6356 76.1475 22.3615 75.697 22.9789C75.2547 23.5964 74.7082 24.0761 74.0574 24.4182C73.4066 24.7603 72.6598 24.9314 71.8171 24.9314C70.9577 24.9314 70.1984 24.7895 69.5392 24.5058C68.88 24.2222 68.321 23.8091 67.8621 23.2668C67.4032 22.7244 67.036 22.0736 66.7607 21.3143C66.4937 20.555 66.3101 19.6998 66.21 18.7486V17.3468C66.3101 16.3456 66.4979 15.4486 66.7732 14.6559C67.0486 13.8633 67.4115 13.1874 67.8621 12.6284C68.321 12.061 68.8759 11.6313 69.5267 11.3392C70.1775 11.0389 70.9285 10.8887 71.7795 10.8887C72.6306 10.8887 73.3857 11.0555 74.0449 11.3893C74.704 11.7147 75.2589 12.182 75.7095 12.7911C76.16 13.4002 76.498 14.1303 76.7233 14.9813C76.9569 15.8241 77.0737 16.7627 77.0737 17.7974ZM74.7458 18.0602V17.7974C74.7458 17.1215 74.6748 16.4874 74.533 15.895C74.3912 15.2942 74.17 14.7686 73.8697 14.318C73.5776 13.8591 73.2022 13.5003 72.7432 13.2416C72.2843 12.9746 71.7378 12.8411 71.1037 12.8411C70.5196 12.8411 70.0106 12.9413 69.5767 13.1415C69.1512 13.3418 68.7883 13.6129 68.4879 13.955C68.1875 14.2888 67.9414 14.6726 67.7494 15.1065C67.5659 15.532 67.4282 15.9742 67.3364 16.4332V19.6748C67.5033 20.2588 67.7369 20.8095 68.0373 21.3268C68.3377 21.8358 68.7382 22.2488 69.2388 22.5659C69.7395 22.8746 70.3694 23.029 71.1287 23.029C71.7545 23.029 72.2927 22.8997 72.7432 22.641C73.2022 22.374 73.5776 22.011 73.8697 21.5521C74.17 21.0932 74.3912 20.5675 74.533 19.9751C74.6748 19.3744 74.7458 18.7361 74.7458 18.0602Z" fill="#999999"/>
<path d="M85.647 24.9314C84.7042 24.9314 83.8489 24.7728 83.0813 24.4558C82.322 24.1304 81.667 23.6756 81.1163 23.0916C80.574 22.5075 80.1568 21.8149 79.8647 21.0139C79.5727 20.2129 79.4267 19.3368 79.4267 18.3856V17.86C79.4267 16.7586 79.5894 15.7782 79.9148 14.9188C80.2402 14.051 80.6824 13.3167 81.2415 12.716C81.8005 12.1152 82.4346 11.6605 83.1439 11.3518C83.8531 11.043 84.5873 10.8887 85.3466 10.8887C86.3145 10.8887 87.1489 11.0555 87.8498 11.3893C88.559 11.7231 89.1389 12.1903 89.5895 12.7911C90.0401 13.3835 90.3738 14.0844 90.5908 14.8937C90.8077 15.6947 90.9162 16.5708 90.9162 17.522V18.5608H80.8034V16.671H88.6007V16.4957C88.5674 15.895 88.4422 15.3109 88.2253 14.7435C88.0167 14.1761 87.6829 13.7089 87.224 13.3418C86.7651 12.9746 86.1393 12.7911 85.3466 12.7911C84.821 12.7911 84.337 12.9037 83.8948 13.129C83.4526 13.3459 83.0729 13.6713 82.7559 14.1052C82.4388 14.5391 82.1927 15.0689 82.0174 15.6947C81.8422 16.3205 81.7546 17.0423 81.7546 17.86V18.3856C81.7546 19.0281 81.8422 19.633 82.0174 20.2004C82.201 20.7595 82.4638 21.2517 82.8059 21.6773C83.1564 22.1028 83.5777 22.4366 84.07 22.6785C84.5707 22.9205 85.138 23.0415 85.7722 23.0415C86.5899 23.0415 87.2824 22.8746 87.8498 22.5409C88.4172 22.2071 88.9136 21.7607 89.3392 21.2017L90.7409 22.3156C90.4489 22.7578 90.0776 23.1792 89.627 23.5797C89.1765 23.9802 88.6216 24.3056 87.9624 24.5559C87.3116 24.8062 86.5398 24.9314 85.647 24.9314Z" fill="#999999"/>
<path d="M95.935 14.0301V24.6811H93.6196V11.139H95.8098L95.935 14.0301ZM95.3843 17.3969L94.4206 17.3593C94.4289 16.4332 94.5666 15.5779 94.8336 14.7936C95.1006 14.0009 95.4761 13.3126 95.96 12.7285C96.444 12.1444 97.0197 11.6938 97.6872 11.3768C98.3631 11.0514 99.1098 10.8887 99.9275 10.8887C100.595 10.8887 101.196 10.9805 101.73 11.164C102.264 11.3392 102.719 11.6229 103.094 12.0151C103.478 12.4072 103.77 12.9162 103.97 13.542C104.17 14.1595 104.271 14.9146 104.271 15.8074V24.6811H101.943V15.7823C101.943 15.0731 101.838 14.5057 101.63 14.0802C101.421 13.6463 101.117 13.3334 100.716 13.1415C100.316 12.9413 99.8232 12.8411 99.2392 12.8411C98.6634 12.8411 98.1378 12.9621 97.6622 13.2041C97.1949 13.4461 96.7902 13.7798 96.4481 14.2054C96.1144 14.6309 95.8516 15.119 95.6596 15.6697C95.4761 16.212 95.3843 16.7878 95.3843 17.3969Z" fill="#999999"/>
<path d="M113.069 24.6811H109.264L109.289 22.7161H113.069C114.371 22.7161 115.455 22.4449 116.323 21.9026C117.191 21.3519 117.842 20.5842 118.276 19.5997C118.718 18.6067 118.939 17.4469 118.939 16.1203V15.0064C118.939 13.9634 118.814 13.0372 118.564 12.2279C118.313 11.4102 117.946 10.7218 117.462 10.1628C116.978 9.59537 116.386 9.16566 115.685 8.87363C114.992 8.58159 114.196 8.43557 113.294 8.43557H109.189V6.45808H113.294C114.488 6.45808 115.576 6.65833 116.561 7.05884C117.546 7.451 118.392 8.02255 119.102 8.7735C119.819 9.5161 120.37 10.4172 120.754 11.4769C121.138 12.5282 121.33 13.7131 121.33 15.0314V16.1203C121.33 17.4386 121.138 18.6276 120.754 19.6873C120.37 20.7386 119.815 21.6356 119.089 22.3782C118.372 23.1208 117.504 23.6923 116.486 24.0928C115.476 24.485 114.337 24.6811 113.069 24.6811ZM110.553 6.45808V24.6811H108.138V6.45808H110.553Z" fill="#999999"/>
<path d="M123.995 18.0602V17.7724C123.995 16.7961 124.137 15.8908 124.421 15.0564C124.705 14.2137 125.113 13.4836 125.647 12.8662C126.181 12.2404 126.828 11.7564 127.587 11.4143C128.347 11.0639 129.198 10.8887 130.141 10.8887C131.092 10.8887 131.947 11.0639 132.706 11.4143C133.474 11.7564 134.125 12.2404 134.659 12.8662C135.201 13.4836 135.614 14.2137 135.898 15.0564C136.182 15.8908 136.323 16.7961 136.323 17.7724V18.0602C136.323 19.0364 136.182 19.9418 135.898 20.7761C135.614 21.6105 135.201 22.3406 134.659 22.9664C134.125 23.5838 133.478 24.0678 132.719 24.4182C131.968 24.7603 131.117 24.9314 130.166 24.9314C129.214 24.9314 128.359 24.7603 127.6 24.4182C126.841 24.0678 126.19 23.5838 125.647 22.9664C125.113 22.3406 124.705 21.6105 124.421 20.7761C124.137 19.9418 123.995 19.0364 123.995 18.0602ZM126.311 17.7724V18.0602C126.311 18.7361 126.39 19.3744 126.549 19.9751C126.707 20.5675 126.945 21.0932 127.262 21.5521C127.587 22.011 127.992 22.374 128.476 22.641C128.96 22.8997 129.523 23.029 130.166 23.029C130.8 23.029 131.355 22.8997 131.83 22.641C132.314 22.374 132.715 22.011 133.032 21.5521C133.349 21.0932 133.587 20.5675 133.745 19.9751C133.912 19.3744 133.995 18.7361 133.995 18.0602V17.7724C133.995 17.1048 133.912 16.4749 133.745 15.8825C133.587 15.2817 133.345 14.7519 133.019 14.293C132.702 13.8257 132.302 13.4586 131.818 13.1916C131.342 12.9246 130.783 12.7911 130.141 12.7911C129.507 12.7911 128.947 12.9246 128.464 13.1916C127.988 13.4586 127.587 13.8257 127.262 14.293C126.945 14.7519 126.707 15.2817 126.549 15.8825C126.39 16.4749 126.311 17.1048 126.311 17.7724Z" fill="#999999"/>
<path d="M138.614 18.0602V17.7724C138.614 16.7961 138.756 15.8908 139.039 15.0564C139.323 14.2137 139.732 13.4836 140.266 12.8662C140.8 12.2404 141.447 11.7564 142.206 11.4143C142.965 11.0639 143.816 10.8887 144.759 10.8887C145.71 10.8887 146.566 11.0639 147.325 11.4143C148.092 11.7564 148.743 12.2404 149.277 12.8662C149.82 13.4836 150.233 14.2137 150.516 15.0564C150.8 15.8908 150.942 16.7961 150.942 17.7724V18.0602C150.942 19.0364 150.8 19.9418 150.516 20.7761C150.233 21.6105 149.82 22.3406 149.277 22.9664C148.743 23.5838 148.097 24.0678 147.337 24.4182C146.586 24.7603 145.735 24.9314 144.784 24.9314C143.833 24.9314 142.978 24.7603 142.218 24.4182C141.459 24.0678 140.808 23.5838 140.266 22.9664C139.732 22.3406 139.323 21.6105 139.039 20.7761C138.756 19.9418 138.614 19.0364 138.614 18.0602ZM140.929 17.7724V18.0602C140.929 18.7361 141.009 19.3744 141.167 19.9751C141.326 20.5675 141.563 21.0932 141.88 21.5521C142.206 22.011 142.611 22.374 143.094 22.641C143.578 22.8997 144.142 23.029 144.784 23.029C145.418 23.029 145.973 22.8997 146.449 22.641C146.933 22.374 147.333 22.011 147.65 21.5521C147.967 21.0932 148.205 20.5675 148.364 19.9751C148.53 19.3744 148.614 18.7361 148.614 18.0602V17.7724C148.614 17.1048 148.53 16.4749 148.364 15.8825C148.205 15.2817 147.963 14.7519 147.638 14.293C147.321 13.8257 146.92 13.4586 146.436 13.1916C145.961 12.9246 145.402 12.7911 144.759 12.7911C144.125 12.7911 143.566 12.9246 143.082 13.1916C142.606 13.4586 142.206 13.8257 141.88 14.293C141.563 14.7519 141.326 15.2817 141.167 15.8825C141.009 16.4749 140.929 17.1048 140.929 17.7724Z" fill="#999999"/>
<path d="M156.161 13.2667V24.6811H153.846V11.139H156.098L156.161 13.2667ZM160.391 11.0639L160.379 13.2166C160.187 13.1749 160.003 13.1499 159.828 13.1415C159.661 13.1248 159.469 13.1165 159.252 13.1165C158.718 13.1165 158.247 13.1999 157.838 13.3668C157.429 13.5337 157.083 13.7673 156.799 14.0677C156.516 14.3681 156.29 14.7268 156.123 15.144C155.965 15.5529 155.861 16.0035 155.811 16.4957L155.16 16.8712C155.16 16.0535 155.239 15.2859 155.397 14.5683C155.564 13.8507 155.819 13.2166 156.161 12.6659C156.503 12.1069 156.937 11.673 157.463 11.3643C157.997 11.0472 158.631 10.8887 159.365 10.8887C159.532 10.8887 159.724 10.9095 159.941 10.9512C160.158 10.9846 160.308 11.0222 160.391 11.0639Z" fill="#999999"/>
<path d="M21.01 4.20492L33.6161 0.00146484L21.01 16.8153L33.6161 33.6291L21.01 29.4256L33.6161 0.00146484V33.6291" fill="#999999"/>
<path d="M21.0101 4.20508H0L21.0101 16.8154L0 29.4258H21.0101L0 4.20508V29.4258" fill="#999999"/>
</svg>
