<svg width="195" height="41" viewBox="0 0 195 41" fill="none" xmlns="http://www.w3.org/2000/svg">
<path d="M75.4767 18.1435V19.537C75.4767 21.193 75.2697 22.6774 74.8557 23.9901C74.4417 25.3028 73.846 26.4186 73.0684 27.3374C72.2909 28.2563 71.3569 28.9581 70.2663 29.4428C69.1859 29.9275 67.9742 30.1698 66.6312 30.1698C65.3286 30.1698 64.132 29.9275 63.0415 29.4428C61.961 28.9581 61.022 28.2563 60.2243 27.3374C59.4366 26.4186 58.8257 25.3028 58.3915 23.9901C57.9573 22.6774 57.7402 21.193 57.7402 19.537V18.1435C57.7402 16.4875 57.9523 15.0082 58.3764 13.7056C58.8106 12.3929 59.4215 11.2772 60.2091 10.3583C60.9967 9.42929 61.9307 8.72246 63.0112 8.23777C64.1017 7.75308 65.2983 7.51074 66.6009 7.51074C67.9439 7.51074 69.1556 7.75308 70.236 8.23777C71.3266 8.72246 72.2606 9.42929 73.0381 10.3583C73.8258 11.2772 74.4266 12.3929 74.8406 13.7056C75.2647 15.0082 75.4767 16.4875 75.4767 18.1435ZM72.5837 19.537V18.1133C72.5837 16.8006 72.4474 15.6393 72.1748 14.6296C71.9123 13.6198 71.5235 12.7716 71.0085 12.085C70.4935 11.3983 69.8624 10.8783 69.1152 10.5249C68.3781 10.1715 67.54 9.99476 66.6009 9.99476C65.6921 9.99476 64.8692 10.1715 64.132 10.5249C63.405 10.8783 62.779 11.3983 62.2539 12.085C61.7389 12.7716 61.34 13.6198 61.0573 14.6296C60.7746 15.6393 60.6332 16.8006 60.6332 18.1133V19.537C60.6332 20.8598 60.7746 22.0311 61.0573 23.051C61.34 24.0608 61.7439 24.914 62.269 25.6107C62.8042 26.2974 63.4353 26.8174 64.1623 27.1708C64.8995 27.5242 65.7224 27.701 66.6312 27.701C67.5804 27.701 68.4235 27.5242 69.1607 27.1708C69.8978 26.8174 70.5188 26.2974 71.0237 25.6107C71.5386 24.914 71.9274 24.0608 72.1899 23.051C72.4525 22.0311 72.5837 20.8598 72.5837 19.537Z" fill="#111111"/>
<path d="M82.232 16.6289V36.1678H79.4148V13.4784H81.9897L82.232 16.6289ZM93.2738 21.5363V21.8544C93.2738 23.0459 93.1324 24.1516 92.8497 25.1715C92.567 26.1813 92.153 27.0598 91.6077 27.807C91.0725 28.5542 90.4111 29.1348 89.6235 29.5488C88.8359 29.9628 87.9321 30.1698 86.9123 30.1698C85.8722 30.1698 84.9533 29.9982 84.1556 29.6548C83.3579 29.3115 82.6814 28.8117 82.126 28.1553C81.5706 27.499 81.1263 26.7114 80.7931 25.7925C80.47 24.8736 80.2478 23.8386 80.1267 22.6875V20.9911C80.2478 19.7794 80.475 18.6939 80.8083 17.7346C81.1415 16.7753 81.5807 15.9574 82.126 15.2809C82.6814 14.5942 83.3529 14.0742 84.1405 13.7208C84.9281 13.3573 85.8369 13.1755 86.8668 13.1755C87.8968 13.1755 88.8106 13.3775 89.6083 13.7814C90.4061 14.1752 91.0776 14.7406 91.6228 15.4778C92.1681 16.2149 92.5771 17.0984 92.8497 18.1284C93.1324 19.1483 93.2738 20.2842 93.2738 21.5363ZM90.4566 21.8544V21.5363C90.4566 20.7184 90.3707 19.951 90.1991 19.2341C90.0274 18.5071 89.7598 17.8709 89.3963 17.3256C89.0429 16.7703 88.5885 16.3361 88.0331 16.023C87.4777 15.6999 86.8164 15.5384 86.0489 15.5384C85.3421 15.5384 84.7261 15.6595 84.2011 15.9019C83.6861 16.1442 83.2468 16.4724 82.8833 16.8864C82.5198 17.2903 82.2219 17.7548 81.9897 18.2799C81.7675 18.7948 81.6009 19.33 81.4899 19.8854V23.8083C81.6918 24.5152 81.9745 25.1816 82.3381 25.8076C82.7016 26.4236 83.1863 26.9234 83.7921 27.3071C84.398 27.6808 85.1603 27.8676 86.0792 27.8676C86.8365 27.8676 87.4878 27.711 88.0331 27.398C88.5885 27.0749 89.0429 26.6357 89.3963 26.0803C89.7598 25.5249 90.0274 24.8888 90.1991 24.1718C90.3707 23.4448 90.4566 22.6723 90.4566 21.8544Z" fill="#111111"/>
<path d="M103.649 30.1698C102.508 30.1698 101.473 29.978 100.544 29.5943C99.6252 29.2004 98.8325 28.6501 98.1661 27.9433C97.5097 27.2365 97.0049 26.3984 96.6514 25.429C96.298 24.4596 96.1213 23.3994 96.1213 22.2482V21.6121C96.1213 20.2792 96.3182 19.0927 96.712 18.0527C97.1058 17.0025 97.641 16.1139 98.3176 15.3869C98.9941 14.6599 99.7615 14.1095 100.62 13.7359C101.478 13.3623 102.367 13.1755 103.286 13.1755C104.457 13.1755 105.467 13.3775 106.315 13.7814C107.173 14.1853 107.875 14.7507 108.42 15.4778C108.966 16.1947 109.369 17.0429 109.632 18.0224C109.894 18.9917 110.026 20.052 110.026 21.2031V22.4603H97.7874V20.1732H107.224V19.9611C107.183 19.2341 107.032 18.5273 106.769 17.8406C106.517 17.154 106.113 16.5885 105.558 16.1442C105.002 15.6999 104.245 15.4778 103.286 15.4778C102.649 15.4778 102.064 15.6141 101.529 15.8867C100.993 16.1493 100.534 16.5431 100.15 17.0681C99.7666 17.5932 99.4687 18.2344 99.2566 18.9917C99.0446 19.7491 98.9386 20.6225 98.9386 21.6121V22.2482C98.9386 23.0257 99.0446 23.7578 99.2566 24.4445C99.4788 25.121 99.7969 25.7168 100.211 26.2317C100.635 26.7467 101.145 27.1506 101.741 27.4435C102.347 27.7363 103.033 27.8827 103.801 27.8827C104.79 27.8827 105.628 27.6808 106.315 27.2768C107.002 26.8729 107.602 26.3327 108.117 25.6562L109.814 27.0042C109.46 27.5394 109.011 28.0493 108.466 28.534C107.92 29.0187 107.249 29.4125 106.451 29.7154C105.664 30.0184 104.73 30.1698 103.649 30.1698Z" fill="#111111"/>
<path d="M116.099 16.9773V29.8669H113.297V13.4784H115.948L116.099 16.9773ZM115.433 21.0517L114.267 21.0062C114.277 19.8854 114.443 18.8504 114.767 17.9012C115.09 16.9419 115.544 16.1089 116.13 15.402C116.715 14.6952 117.412 14.1499 118.22 13.7662C119.038 13.3724 119.942 13.1755 120.931 13.1755C121.739 13.1755 122.466 13.2866 123.112 13.5087C123.759 13.7208 124.309 14.0641 124.763 14.5387C125.228 15.0133 125.581 15.6292 125.823 16.3866C126.066 17.1338 126.187 18.0476 126.187 19.1281V29.8669H123.37V19.0978C123.37 18.2395 123.244 17.5528 122.991 17.0379C122.739 16.5128 122.37 16.1341 121.885 15.9019C121.401 15.6595 120.805 15.5384 120.098 15.5384C119.401 15.5384 118.765 15.6848 118.19 15.9776C117.624 16.2704 117.134 16.6743 116.72 17.1893C116.317 17.7043 115.999 18.295 115.766 18.9615C115.544 19.6178 115.433 20.3145 115.433 21.0517Z" fill="#111111"/>
<path d="M136.835 29.8669H132.23L132.261 27.4889H136.835C138.41 27.4889 139.723 27.1607 140.773 26.5044C141.823 25.8379 142.611 24.909 143.136 23.7174C143.671 22.5158 143.939 21.1122 143.939 19.5067V18.1587C143.939 16.8965 143.787 15.7757 143.484 14.7962C143.181 13.8066 142.737 12.9736 142.151 12.297C141.566 11.6104 140.849 11.0904 140.001 10.7369C139.162 10.3835 138.198 10.2068 137.108 10.2068H132.14V7.81367H137.108C138.552 7.81367 139.869 8.05601 141.061 8.5407C142.252 9.01529 143.277 9.70698 144.136 10.6158C145.004 11.5145 145.67 12.605 146.135 13.8874C146.599 15.1597 146.832 16.5936 146.832 18.189V19.5067C146.832 21.1022 146.599 22.5411 146.135 23.8235C145.67 25.0958 144.999 26.1813 144.12 27.0799C143.252 27.9786 142.202 28.6703 140.97 29.155C139.748 29.6296 138.37 29.8669 136.835 29.8669ZM133.791 7.81367V29.8669H130.867V7.81367H133.791Z" fill="#111111"/>
<path d="M150.058 21.8544V21.5061C150.058 20.3246 150.229 19.229 150.573 18.2193C150.916 17.1994 151.411 16.3159 152.057 15.5686C152.703 14.8113 153.486 14.2257 154.405 13.8117C155.324 13.3876 156.354 13.1755 157.495 13.1755C158.646 13.1755 159.681 13.3876 160.6 13.8117C161.529 14.2257 162.316 14.8113 162.963 15.5686C163.619 16.3159 164.119 17.1994 164.462 18.2193C164.805 19.229 164.977 20.3246 164.977 21.5061V21.8544C164.977 23.0358 164.805 24.1314 164.462 25.1412C164.119 26.151 163.619 27.0345 162.963 27.7918C162.316 28.5391 161.534 29.1247 160.615 29.5488C159.706 29.9628 158.676 30.1698 157.525 30.1698C156.374 30.1698 155.339 29.9628 154.42 29.5488C153.501 29.1247 152.713 28.5391 152.057 27.7918C151.411 27.0345 150.916 26.151 150.573 25.1412C150.229 24.1314 150.058 23.0358 150.058 21.8544ZM152.86 21.5061V21.8544C152.86 22.6723 152.956 23.4448 153.148 24.1718C153.34 24.8888 153.627 25.5249 154.011 26.0803C154.405 26.6357 154.895 27.0749 155.48 27.398C156.066 27.711 156.747 27.8676 157.525 27.8676C158.292 27.8676 158.964 27.711 159.539 27.398C160.125 27.0749 160.61 26.6357 160.994 26.0803C161.377 25.5249 161.665 24.8888 161.857 24.1718C162.059 23.4448 162.16 22.6723 162.16 21.8544V21.5061C162.16 20.6982 162.059 19.9359 161.857 19.2189C161.665 18.4919 161.372 17.8507 160.978 17.2953C160.595 16.7299 160.11 16.2856 159.524 15.9625C158.949 15.6393 158.272 15.4778 157.495 15.4778C156.727 15.4778 156.051 15.6393 155.465 15.9625C154.89 16.2856 154.405 16.7299 154.011 17.2953C153.627 17.8507 153.34 18.4919 153.148 19.2189C152.956 19.9359 152.86 20.6982 152.86 21.5061Z" fill="#111111"/>
<path d="M167.749 21.8544V21.5061C167.749 20.3246 167.921 19.229 168.264 18.2193C168.607 17.1994 169.102 16.3159 169.748 15.5686C170.394 14.8113 171.177 14.2257 172.096 13.8117C173.015 13.3876 174.045 13.1755 175.186 13.1755C176.337 13.1755 177.372 13.3876 178.291 13.8117C179.22 14.2257 180.007 14.8113 180.654 15.5686C181.31 16.3159 181.81 17.1994 182.153 18.2193C182.496 19.229 182.668 20.3246 182.668 21.5061V21.8544C182.668 23.0358 182.496 24.1314 182.153 25.1412C181.81 26.151 181.31 27.0345 180.654 27.7918C180.007 28.5391 179.225 29.1247 178.306 29.5488C177.397 29.9628 176.367 30.1698 175.216 30.1698C174.065 30.1698 173.03 29.9628 172.111 29.5488C171.192 29.1247 170.405 28.5391 169.748 27.7918C169.102 27.0345 168.607 26.151 168.264 25.1412C167.921 24.1314 167.749 23.0358 167.749 21.8544ZM170.551 21.5061V21.8544C170.551 22.6723 170.647 23.4448 170.839 24.1718C171.031 24.8888 171.318 25.5249 171.702 26.0803C172.096 26.6357 172.586 27.0749 173.171 27.398C173.757 27.711 174.439 27.8676 175.216 27.8676C175.983 27.8676 176.655 27.711 177.231 27.398C177.816 27.0749 178.301 26.6357 178.685 26.0803C179.068 25.5249 179.356 24.8888 179.548 24.1718C179.75 23.4448 179.851 22.6723 179.851 21.8544V21.5061C179.851 20.6982 179.75 19.9359 179.548 19.2189C179.356 18.4919 179.063 17.8507 178.669 17.2953C178.286 16.7299 177.801 16.2856 177.215 15.9625C176.64 15.6393 175.963 15.4778 175.186 15.4778C174.418 15.4778 173.742 15.6393 173.156 15.9625C172.581 16.2856 172.096 16.7299 171.702 17.2953C171.318 17.8507 171.031 18.4919 170.839 19.2189C170.647 19.9359 170.551 20.6982 170.551 21.5061Z" fill="#111111"/>
<path d="M188.984 16.0533V29.8669H186.182V13.4784H188.908L188.984 16.0533ZM194.104 13.3876L194.089 15.9928C193.856 15.9423 193.634 15.912 193.422 15.9019C193.22 15.8817 192.988 15.8716 192.725 15.8716C192.079 15.8716 191.509 15.9726 191.014 16.1745C190.519 16.3765 190.1 16.6592 189.757 17.0227C189.413 17.3862 189.141 17.8204 188.939 18.3253C188.747 18.8201 188.621 19.3654 188.56 19.9611L187.772 20.4155C187.772 19.4259 187.868 18.497 188.06 17.6286C188.262 16.7602 188.57 15.9928 188.984 15.3263C189.398 14.6498 189.923 14.1247 190.559 13.7511C191.206 13.3674 191.973 13.1755 192.862 13.1755C193.064 13.1755 193.296 13.2008 193.558 13.2512C193.821 13.2916 194.003 13.3371 194.104 13.3876Z" fill="#111111"/>
<path d="M25.4263 5.08696L40.682 0L25.4263 20.3478L40.682 40.6957L25.4263 35.6087L40.682 0V40.6957" fill="#111111"/>
<path d="M25.4262 5.08704H0L25.4262 20.3479L0 35.6088H25.4262L0 5.08704V35.6088" fill="#111111"/>
</svg>
