<svg width="131" height="38" viewBox="0 0 131 38" fill="none" xmlns="http://www.w3.org/2000/svg">
<path d="M66.9437 28V7.63636H68.1468V16.1378H68.2661C68.5047 15.4815 68.8428 14.8783 69.2803 14.3281C69.7178 13.7779 70.2614 13.3371 70.911 13.0057C71.5606 12.6676 72.3196 12.4986 73.188 12.4986C74.4143 12.4986 75.4849 12.84 76.3996 13.5227C77.3144 14.1989 78.0237 15.1335 78.5275 16.3267C79.0313 17.5133 79.2832 18.8722 79.2832 20.4034C79.2832 21.9479 79.0313 23.3168 78.5275 24.5099C78.0237 25.6965 77.3177 26.6278 76.4096 27.304C75.5014 27.9801 74.4309 28.3182 73.1979 28.3182C72.3296 28.3182 71.5706 28.1525 70.9209 27.821C70.2713 27.483 69.7278 27.0388 69.2903 26.4886C68.8528 25.9318 68.5114 25.3253 68.2661 24.669H68.1269V28H66.9437ZM68.1369 20.3935C68.1369 21.6927 68.3324 22.8561 68.7235 23.8835C69.1212 24.9044 69.6913 25.7131 70.4337 26.3097C71.1762 26.8996 72.0644 27.1946 73.0985 27.1946C74.1458 27.1946 75.0407 26.8963 75.7832 26.2997C76.5256 25.6965 77.0923 24.8812 77.4834 23.8537C77.8812 22.8262 78.08 21.6728 78.08 20.3935C78.08 19.1141 77.8812 17.964 77.4834 16.9432C77.0923 15.9223 76.5256 15.117 75.7832 14.527C75.0407 13.9304 74.1458 13.6321 73.0985 13.6321C72.0644 13.6321 71.1762 13.9271 70.4337 14.517C69.6913 15.1004 69.1212 15.9025 68.7235 16.9233C68.3324 17.9375 68.1369 19.0942 68.1369 20.3935ZM90.5468 28.3182C89.2873 28.3182 88.1671 27.9801 87.186 27.304C86.2049 26.6212 85.4327 25.6832 84.8692 24.4901C84.3058 23.2969 84.0241 21.938 84.0241 20.4134C84.0241 18.8821 84.3058 17.5232 84.8692 16.3366C85.4327 15.1435 86.2049 14.2055 87.186 13.5227C88.1671 12.84 89.2873 12.4986 90.5468 12.4986C91.8063 12.4986 92.9265 12.84 93.9076 13.5227C94.8887 14.2055 95.6609 15.1435 96.2244 16.3366C96.7878 17.5298 97.0695 18.8887 97.0695 20.4134C97.0695 21.938 96.7878 23.2969 96.2244 24.4901C95.6609 25.6832 94.8887 26.6212 93.9076 27.304C92.9265 27.9801 91.8063 28.3182 90.5468 28.3182ZM90.5468 27.1946C91.614 27.1946 92.5454 26.893 93.3408 26.2898C94.1429 25.6866 94.7627 24.8712 95.2002 23.8438C95.6443 22.8163 95.8664 21.6728 95.8664 20.4134C95.8664 19.1539 95.6443 18.0137 95.2002 16.9929C94.7561 15.9654 94.1363 15.1501 93.3408 14.5469C92.5454 13.937 91.614 13.6321 90.5468 13.6321C89.4796 13.6321 88.5482 13.937 87.7528 14.5469C86.9573 15.1501 86.3375 15.9654 85.8934 16.9929C85.4493 18.0137 85.2272 19.1539 85.2272 20.4134C85.2272 21.6728 85.4459 22.8163 85.8834 23.8438C86.3276 24.8712 86.9474 25.6866 87.7428 26.2898C88.5449 26.893 89.4796 27.1946 90.5468 27.1946ZM102.477 12.7273L106.693 19.5185L110.908 12.7273H112.31L107.418 20.3636L112.31 28H110.908L106.693 21.3182L102.477 28H101.065L105.937 20.3636L101.065 12.7273H102.477ZM118.749 33.7273C118.444 33.7273 118.143 33.6941 117.844 33.6278C117.546 33.5616 117.278 33.4754 117.039 33.3693L117.397 32.3054C118.02 32.544 118.583 32.6302 119.087 32.5639C119.598 32.4976 120.048 32.2656 120.439 31.8679C120.831 31.4702 121.162 30.8868 121.434 30.1179L122.13 28.2088L116.532 12.7273H117.834L122.687 26.4389H122.786L127.638 12.7273H128.941L122.498 30.5952C122.252 31.2846 121.944 31.8613 121.573 32.3253C121.202 32.7893 120.778 33.1373 120.3 33.3693C119.83 33.608 119.313 33.7273 118.749 33.7273Z" fill="#111111"/>
<path d="M66.9437 28H65.9437V29H66.9437V28ZM66.9437 7.63636V6.63636H65.9437V7.63636H66.9437ZM68.1468 7.63636H69.1468V6.63636H68.1468V7.63636ZM68.1468 16.1378H67.1468V17.1378H68.1468V16.1378ZM68.2661 16.1378V17.1378H68.9665L69.2059 16.4795L68.2661 16.1378ZM69.2803 14.3281L70.063 14.9505L70.063 14.9505L69.2803 14.3281ZM70.911 13.0057L71.3655 13.8965L71.3726 13.8927L70.911 13.0057ZM76.3996 13.5227L75.8015 14.3241L75.8052 14.3269L76.3996 13.5227ZM78.5275 16.3267L77.6062 16.7157L77.607 16.7175L78.5275 16.3267ZM78.5275 24.5099L79.4479 24.9008L79.4487 24.8989L78.5275 24.5099ZM76.4096 27.304L77.0068 28.1061L77.0068 28.1061L76.4096 27.304ZM70.9209 27.821L70.4593 28.7081L70.4665 28.7118L70.9209 27.821ZM69.2903 26.4886L68.5039 27.1065L68.5076 27.111L69.2903 26.4886ZM68.2661 24.669L69.2028 24.3189L68.9599 23.669H68.2661V24.669ZM68.1269 24.669V23.669H67.1269V24.669H68.1269ZM68.1269 28V29H69.1269V28H68.1269ZM68.7235 23.8835L67.7889 24.2393L67.7917 24.2466L68.7235 23.8835ZM70.4337 26.3097L69.8073 27.0892L69.8116 27.0926L70.4337 26.3097ZM75.7832 26.2997L76.4096 27.0792L76.4138 27.0758L75.7832 26.2997ZM77.4834 23.8537L76.5509 23.4927L76.5489 23.4979L77.4834 23.8537ZM77.4834 16.9432L76.5496 17.3009L76.5517 17.3062L77.4834 16.9432ZM75.7832 14.527L75.1568 15.3065L75.161 15.3099L75.7832 14.527ZM70.4337 14.517L71.0516 15.3034L71.0559 15.3L70.4337 14.517ZM68.7235 16.9233L67.7917 16.5603L67.7905 16.5635L68.7235 16.9233ZM67.9437 28V7.63636H65.9437V28H67.9437ZM66.9437 8.63636H68.1468V6.63636H66.9437V8.63636ZM67.1468 7.63636V16.1378H69.1468V7.63636H67.1468ZM68.1468 17.1378H68.2661V15.1378H68.1468V17.1378ZM69.2059 16.4795C69.4074 15.9254 69.6922 15.4168 70.063 14.9505L68.4976 13.7057C67.9934 14.3398 67.6021 15.0377 67.3263 15.796L69.2059 16.4795ZM70.063 14.9505C70.4082 14.5164 70.8383 14.1654 71.3655 13.8964L70.4565 12.1149C69.6845 12.5088 69.0274 13.0394 68.4976 13.7057L70.063 14.9505ZM71.3726 13.8927C71.8555 13.6415 72.4506 13.4986 73.188 13.4986V11.4986C72.1886 11.4986 71.2658 11.6937 70.4494 12.1186L71.3726 13.8927ZM73.188 13.4986C74.2158 13.4986 75.0726 13.7801 75.8015 14.3241L76.9978 12.7213C75.8971 11.8998 74.6129 11.4986 73.188 11.4986V13.4986ZM75.8052 14.3269C76.5567 14.8823 77.1623 15.6644 77.6062 16.7157L79.4487 15.9377C78.885 14.6027 78.0721 13.5154 76.994 12.7186L75.8052 14.3269ZM77.607 16.7175C78.0494 17.7595 78.2832 18.9817 78.2832 20.4034H80.2832C80.2832 18.7627 80.0131 17.267 79.4479 15.9359L77.607 16.7175ZM78.2832 20.4034C78.2832 21.8395 78.0491 23.0722 77.6062 24.121L79.4487 24.8989C80.0135 23.5613 80.2832 22.0563 80.2832 20.4034H78.2832ZM77.607 24.1191C77.1628 25.1654 76.5594 25.9457 75.8124 26.5019L77.0068 28.1061C78.0761 27.3099 78.8846 26.2276 79.4479 24.9008L77.607 24.1191ZM75.8124 26.5019C75.0924 27.0379 74.236 27.3182 73.1979 27.3182V29.3182C74.6258 29.3182 75.9105 28.9223 77.0068 28.1061L75.8124 26.5019ZM73.1979 27.3182C72.4576 27.3182 71.8599 27.1774 71.3754 26.9303L70.4665 28.7118C71.2813 29.1275 72.2015 29.3182 73.1979 29.3182V27.3182ZM71.3826 26.934C70.852 26.6579 70.4195 26.3021 70.073 25.8662L68.5076 27.111C69.036 27.7756 69.6906 28.3081 70.4593 28.7081L71.3826 26.934ZM70.0766 25.8708C69.702 25.3941 69.4117 24.8777 69.2028 24.3189L67.3294 25.0191C67.6111 25.7729 68.0035 26.4696 68.5039 27.1065L70.0766 25.8708ZM68.2661 23.669H68.1269V25.669H68.2661V23.669ZM67.1269 24.669V28H69.1269V24.669H67.1269ZM68.1269 27H66.9437V29H68.1269V27ZM67.1369 20.3935C67.1369 21.7926 67.3475 23.0796 67.7889 24.2393L69.6581 23.5278C69.3173 22.6325 69.1369 21.5928 69.1369 20.3935H67.1369ZM67.7917 24.2466C68.2433 25.4057 68.909 26.3673 69.8073 27.0892L71.0601 25.5302C70.4736 25.0588 69.9991 24.403 69.6553 23.5205L67.7917 24.2466ZM69.8116 27.0926C70.7472 27.8361 71.8602 28.1946 73.0985 28.1946V26.1946C72.2686 26.1946 71.6051 25.9632 71.0559 25.5267L69.8116 27.0926ZM73.0985 28.1946C74.3495 28.1946 75.4716 27.833 76.4096 27.0792L75.1568 25.5202C74.6099 25.9597 73.9422 26.1946 73.0985 26.1946V28.1946ZM76.4138 27.0758C77.312 26.346 77.9738 25.3764 78.418 24.2094L76.5489 23.4979C76.2109 24.3859 75.7392 25.047 75.1526 25.5236L76.4138 27.0758ZM78.416 24.2147C78.8649 23.0551 79.08 21.7767 79.08 20.3935H77.08C77.08 21.569 76.8975 22.5973 76.5509 23.4927L78.416 24.2147ZM79.08 20.3935C79.08 19.0104 78.8649 17.7344 78.4152 16.5802L76.5517 17.3062C76.8974 18.1937 77.08 19.2178 77.08 20.3935H79.08ZM78.4173 16.5854C77.9721 15.4235 77.308 14.4614 76.4053 13.7441L75.161 15.3099C75.7432 15.7725 76.2126 16.4212 76.5496 17.3009L78.4173 16.5854ZM76.4096 13.7475C75.4716 12.9937 74.3495 12.6321 73.0985 12.6321V14.6321C73.9422 14.6321 74.6099 14.867 75.1568 15.3065L76.4096 13.7475ZM73.0985 12.6321C71.8602 12.6321 70.7472 12.9906 69.8116 13.7341L71.0559 15.3C71.6051 14.8635 72.2686 14.6321 73.0985 14.6321V12.6321ZM69.8159 13.7307C68.9116 14.4412 68.2438 15.3999 67.7917 16.5603L69.6553 17.2863C69.9986 16.405 70.471 15.7595 71.0515 15.3034L69.8159 13.7307ZM67.7905 16.5635C67.3474 17.7125 67.1369 18.9946 67.1369 20.3935H69.1369C69.1369 19.1938 69.3174 18.1625 69.6565 17.2831L67.7905 16.5635ZM87.186 27.304L86.6148 28.1248L86.6185 28.1274L87.186 27.304ZM84.8692 24.4901L83.965 24.9171L83.965 24.9171L84.8692 24.4901ZM84.8692 16.3366L85.7726 16.7656L85.7735 16.7637L84.8692 16.3366ZM87.186 13.5227L86.6148 12.7019L86.6148 12.7019L87.186 13.5227ZM93.9076 13.5227L94.4788 12.7019L94.4788 12.7019L93.9076 13.5227ZM96.2244 16.3366L97.1286 15.9096L97.1286 15.9096L96.2244 16.3366ZM96.2244 24.4901L95.3201 24.0631L95.3201 24.0631L96.2244 24.4901ZM93.9076 27.304L94.4751 28.1274L94.4788 28.1248L93.9076 27.304ZM93.3408 26.2898L92.7398 25.4906L92.7366 25.493L93.3408 26.2898ZM95.2002 23.8438L94.2823 23.447L94.2801 23.452L95.2002 23.8438ZM95.2002 16.9929L94.2823 17.3897L94.2832 17.3918L95.2002 16.9929ZM93.3408 14.5469L92.7324 15.3405L92.7366 15.3437L93.3408 14.5469ZM87.7528 14.5469L88.357 15.3437L88.3612 15.3405L87.7528 14.5469ZM85.8934 16.9929L86.8104 17.3918L86.8113 17.3897L85.8934 16.9929ZM85.8834 23.8438L84.9634 24.2355L84.9655 24.2405L85.8834 23.8438ZM87.7428 26.2898L87.1386 27.0866L87.1418 27.089L87.7428 26.2898ZM90.5468 27.3182C89.4778 27.3182 88.5579 27.035 87.7535 26.4806L86.6185 28.1274C87.7763 28.9253 89.0969 29.3182 90.5468 29.3182V27.3182ZM87.7572 26.4832C86.9343 25.9104 86.2702 25.115 85.7735 24.0631L83.965 24.9171C84.5951 26.2515 85.4756 27.332 86.6148 28.1248L87.7572 26.4832ZM85.7735 24.0631C85.2822 23.0226 85.0241 21.8132 85.0241 20.4134H83.0241C83.0241 22.0627 83.3294 23.5711 83.965 24.9171L85.7735 24.0631ZM85.0241 20.4134C85.0241 19.006 85.2825 17.7976 85.7726 16.7656L83.9659 15.9077C83.3291 17.2488 83.0241 18.7582 83.0241 20.4134H85.0241ZM85.7735 16.7637C86.2702 15.7117 86.9343 14.9163 87.7572 14.3435L86.6148 12.7019C85.4756 13.4947 84.5951 14.5752 83.965 15.9096L85.7735 16.7637ZM87.7572 14.3435C88.5614 13.7839 89.48 13.4986 90.5468 13.4986V11.4986C89.0947 11.4986 87.7728 11.896 86.6148 12.7019L87.7572 14.3435ZM90.5468 13.4986C91.6136 13.4986 92.5322 13.7839 93.3364 14.3435L94.4788 12.7019C93.3208 11.896 91.9989 11.4986 90.5468 11.4986V13.4986ZM93.3364 14.3435C94.1593 14.9163 94.8234 15.7117 95.3201 16.7637L97.1286 15.9096C96.4984 14.5752 95.618 13.4947 94.4788 12.7019L93.3364 14.3435ZM95.3201 16.7637C95.8114 17.8041 96.0695 19.0135 96.0695 20.4134H98.0695C98.0695 18.764 97.7642 17.2556 97.1286 15.9096L95.3201 16.7637ZM96.0695 20.4134C96.0695 21.8132 95.8114 23.0226 95.3201 24.0631L97.1286 24.9171C97.7642 23.5711 98.0695 22.0627 98.0695 20.4134H96.0695ZM95.3201 24.0631C94.8234 25.115 94.1593 25.9104 93.3364 26.4832L94.4788 28.1248C95.618 27.332 96.4984 26.2515 97.1286 24.9171L95.3201 24.0631ZM93.3401 26.4806C92.5357 27.035 91.6158 27.3182 90.5468 27.3182V29.3182C91.9967 29.3182 93.3173 28.9253 94.4751 28.1274L93.3401 26.4806ZM90.5468 28.1946C91.8162 28.1946 92.9634 27.831 93.9451 27.0866L92.7366 25.493C92.1274 25.955 91.4119 26.1946 90.5468 26.1946V28.1946ZM93.9419 27.089C94.8996 26.3687 95.622 25.4058 96.1203 24.2355L94.2801 23.452C93.9035 24.3366 93.3863 25.0044 92.7398 25.4906L93.9419 27.089ZM96.1181 24.2405C96.6228 23.073 96.8664 21.7922 96.8664 20.4134H94.8664C94.8664 21.5534 94.6659 22.5596 94.2823 23.447L96.1181 24.2405ZM96.8664 20.4134C96.8664 19.0346 96.6228 17.7562 96.1172 16.594L94.2832 17.3918C94.6658 18.2713 94.8664 19.2732 94.8664 20.4134H96.8664ZM96.1181 16.5961C95.6141 15.4301 94.8938 14.4695 93.9451 13.7501L92.7366 15.3437C93.3787 15.8306 93.8981 16.5008 94.2823 17.3897L96.1181 16.5961ZM93.9493 13.7533C92.9675 13.0006 91.8188 12.6321 90.5468 12.6321V14.6321C91.4093 14.6321 92.1232 14.8735 92.7324 15.3405L93.9493 13.7533ZM90.5468 12.6321C89.2748 12.6321 88.1261 13.0006 87.1443 13.7533L88.3612 15.3405C88.9704 14.8735 89.6843 14.6321 90.5468 14.6321V12.6321ZM87.1485 13.7501C86.1998 14.4695 85.4795 15.4301 84.9755 16.5961L86.8113 17.3897C87.1955 16.5008 87.7148 15.8306 88.357 15.3437L87.1485 13.7501ZM84.9764 16.594C84.4708 17.7562 84.2272 19.0346 84.2272 20.4134H86.2272C86.2272 19.2732 86.4277 18.2713 86.8104 17.3918L84.9764 16.594ZM84.2272 20.4134C84.2272 21.7903 84.4668 23.0693 84.9634 24.2355L86.8035 23.452C86.4251 22.5633 86.2272 21.5554 86.2272 20.4134H84.2272ZM84.9655 24.2405C85.4696 25.4066 86.1898 26.3671 87.1386 27.0866L88.3471 25.493C87.7049 25.006 87.1856 24.3358 86.8014 23.447L84.9655 24.2405ZM87.1418 27.089C88.1285 27.8311 89.2774 28.1946 90.5468 28.1946V26.1946C89.6817 26.1946 88.9613 25.9549 88.3439 25.4906L87.1418 27.089ZM102.477 12.7273L103.326 12.1998L103.033 11.7273H102.477V12.7273ZM106.693 19.5185L105.843 20.0459L106.693 21.4145L107.542 20.0459L106.693 19.5185ZM110.908 12.7273V11.7273H110.352L110.059 12.1998L110.908 12.7273ZM112.31 12.7273L113.152 13.2667L114.139 11.7273H112.31V12.7273ZM107.418 20.3636L106.576 19.8242L106.231 20.3636L106.576 20.9031L107.418 20.3636ZM112.31 28V29H114.139L113.152 27.4606L112.31 28ZM110.908 28L110.063 28.5336L110.357 29H110.908V28ZM106.693 21.3182L107.538 20.7846L106.693 19.4442L105.847 20.7846L106.693 21.3182ZM102.477 28V29H103.028L103.322 28.5336L102.477 28ZM101.065 28L100.222 27.4621L99.2405 29H101.065V28ZM105.937 20.3636L106.78 20.9015L107.123 20.3636L106.78 19.8258L105.937 20.3636ZM101.065 12.7273V11.7273H99.2405L100.222 13.2651L101.065 12.7273ZM101.627 13.2547L105.843 20.0459L107.542 18.991L103.326 12.1998L101.627 13.2547ZM107.542 20.0459L111.758 13.2547L110.059 12.1998L105.843 18.991L107.542 20.0459ZM110.908 13.7273H112.31V11.7273H110.908V13.7273ZM111.468 12.1878L106.576 19.8242L108.26 20.9031L113.152 13.2667L111.468 12.1878ZM106.576 20.9031L111.468 28.5394L113.152 27.4606L108.26 19.8242L106.576 20.9031ZM112.31 27H110.908V29H112.31V27ZM111.754 27.4664L107.538 20.7846L105.847 21.8518L110.063 28.5336L111.754 27.4664ZM105.847 20.7846L101.631 27.4664L103.322 28.5336L107.538 21.8518L105.847 20.7846ZM102.477 27H101.065V29H102.477V27ZM101.908 28.5379L106.78 20.9015L105.094 19.8258L100.222 27.4621L101.908 28.5379ZM106.78 19.8258L101.908 12.1894L100.222 13.2651L105.094 20.9015L106.78 19.8258ZM101.065 13.7273H102.477V11.7273H101.065V13.7273ZM117.844 33.6278L117.627 34.604L117.627 34.604L117.844 33.6278ZM117.039 33.3693L116.091 33.0504L115.801 33.9134L116.633 34.2831L117.039 33.3693ZM117.397 32.3054L117.755 31.3715L116.781 30.9988L116.449 31.9865L117.397 32.3054ZM119.087 32.5639L118.958 31.5722L118.957 31.5725L119.087 32.5639ZM120.439 31.8679L119.726 31.1668L119.726 31.1668L120.439 31.8679ZM121.434 30.1179L120.494 29.7754L120.491 29.7847L121.434 30.1179ZM122.13 28.2088L123.069 28.5513L123.194 28.2102L123.07 27.8688L122.13 28.2088ZM116.532 12.7273V11.7273H115.107L115.591 13.0673L116.532 12.7273ZM117.834 12.7273L118.777 12.3937L118.541 11.7273H117.834V12.7273ZM122.687 26.4389L121.744 26.7725L121.98 27.4389H122.687V26.4389ZM122.786 26.4389V27.4389H123.493L123.729 26.7725L122.786 26.4389ZM127.638 12.7273V11.7273H126.931L126.696 12.3937L127.638 12.7273ZM128.941 12.7273L129.882 13.0665L130.365 11.7273H128.941V12.7273ZM122.498 30.5952L121.557 30.2559L121.556 30.26L122.498 30.5952ZM121.573 32.3253L122.354 32.95L122.354 32.95L121.573 32.3253ZM120.3 33.3693L119.863 32.47L119.856 32.4736L119.848 32.4774L120.3 33.3693ZM118.749 32.7273C118.517 32.7273 118.288 32.7021 118.061 32.6517L117.627 34.604C117.997 34.6861 118.371 34.7273 118.749 34.7273V32.7273ZM118.061 32.6517C117.817 32.5974 117.614 32.5304 117.445 32.4555L116.633 34.2831C116.941 34.4203 117.275 34.5257 117.627 34.604L118.061 32.6517ZM117.987 33.6882L118.345 32.6243L116.449 31.9865L116.091 33.0504L117.987 33.6882ZM117.039 33.2393C117.771 33.5194 118.505 33.6491 119.218 33.5554L118.957 31.5725C118.662 31.6113 118.269 31.5687 117.755 31.3715L117.039 33.2393ZM119.216 33.5556C119.967 33.458 120.619 33.112 121.153 32.569L119.726 31.1668C119.478 31.4193 119.228 31.5372 118.958 31.5722L119.216 33.5556ZM121.153 32.569C121.682 32.0302 122.077 31.2994 122.377 30.4511L120.491 29.7847C120.247 30.4743 119.979 30.9101 119.726 31.1668L121.153 32.569ZM122.373 30.4604L123.069 28.5513L121.19 27.8663L120.494 29.7754L122.373 30.4604ZM123.07 27.8688L117.472 12.3872L115.591 13.0673L121.189 28.5489L123.07 27.8688ZM116.532 13.7273H117.834V11.7273H116.532V13.7273ZM116.892 13.0609L121.744 26.7725L123.629 26.1053L118.777 12.3937L116.892 13.0609ZM122.687 27.4389H122.786V25.4389H122.687V27.4389ZM123.729 26.7725L128.581 13.0609L126.696 12.3937L121.843 26.1053L123.729 26.7725ZM127.638 13.7273H128.941V11.7273H127.638V13.7273ZM128 12.3881L121.557 30.256L123.438 30.9344L129.882 13.0665L128 12.3881ZM121.556 30.26C121.339 30.8679 121.08 31.3409 120.792 31.7006L122.354 32.95C122.809 32.3817 123.166 31.7012 123.44 30.9304L121.556 30.26ZM120.792 31.7006C120.502 32.0626 120.192 32.3103 119.863 32.47L120.737 34.2687C121.363 33.9644 121.901 33.5159 122.354 32.95L120.792 31.7006ZM119.848 32.4774C119.527 32.6402 119.166 32.7273 118.749 32.7273V34.7273C119.459 34.7273 120.132 34.5757 120.753 34.2612L119.848 32.4774Z" fill="#111111"/>
<rect y="1" width="18" height="14" fill="#111111"/>
<rect y="19" width="22" height="19" fill="#111111"/>
<rect x="26" y="1" width="18" height="14" fill="#111111"/>
<rect x="26" y="24" width="18" height="14" fill="#111111"/>
</svg>
